<?xml version="1.0" encoding="UTF-8"?>
<!DOCTYPE svg PUBLIC "-//W3C//DTD SVG 1.1//EN" "http://www.w3.org/Graphics/SVG/1.1/DTD/svg11.dtd">
<svg xmlns="http://www.w3.org/2000/svg" version="1.1" width="500px" height="500px" style="shape-rendering:geometricPrecision; text-rendering:geometricPrecision; image-rendering:optimizeQuality; fill-rule:evenodd; clip-rule:evenodd" xmlns:xlink="http://www.w3.org/1999/xlink">
<g><path style="opacity:0.071" fill="#3f4452" d="M 279.5,66.5 C 266.815,66.3451 254.149,66.6784 241.5,67.5C 244.713,66.5127 248.046,65.5127 251.5,64.5C 259.133,64.5974 266.8,64.5974 274.5,64.5C 276.422,64.8008 278.088,65.4675 279.5,66.5 Z"/></g>
<g><path style="opacity:0.994" fill="#0c0908" d="M 279.5,66.5 C 280.514,67.7647 282.014,68.4313 284,68.5C 293.427,70.399 302.927,71.7323 312.5,72.5C 344.839,81.2518 372.006,98.2518 394,123.5C 418.562,151.634 433.729,184.301 439.5,221.5C 441.422,245.127 441.922,268.794 441,292.5C 440.359,296.871 439.526,301.204 438.5,305.5C 438.543,306.416 438.876,307.083 439.5,307.5C 435.706,323.921 430.039,339.254 422.5,353.5C 397.701,397.969 360.701,423.636 311.5,430.5C 288.12,435.023 265.287,434.023 243,427.5C 242.228,427.645 241.561,427.978 241,428.5C 238.087,425.636 234.753,424.636 231,425.5C 230.692,424.692 230.192,424.025 229.5,423.5C 225.28,422.209 221.28,420.542 217.5,418.5C 193.622,406.709 173.288,390.376 156.5,369.5C 157.239,369.631 157.906,369.464 158.5,369C 156.302,365.977 153.969,363.144 151.5,360.5C 144.95,350.058 138.95,339.391 133.5,328.5C 130.151,319.447 126.818,310.447 123.5,301.5C 120.758,292.066 118.758,282.399 117.5,272.5C 117.241,263.653 116.574,254.986 115.5,246.5C 115.5,244.5 115.5,242.5 115.5,240.5C 115.407,227.456 116.073,214.456 117.5,201.5C 117.843,199.517 117.176,198.183 115.5,197.5C 123.338,155.96 143.338,121.793 175.5,95C 182.167,90.6667 188.833,86.3333 195.5,82C 206.905,76.7212 218.572,71.8879 230.5,67.5C 233.985,67.6886 237.652,67.6886 241.5,67.5C 254.149,66.6784 266.815,66.3451 279.5,66.5 Z M 181.5,213.5 C 176.621,219.259 173.287,225.925 171.5,233.5C 163.389,247.19 162.889,261.19 170,275.5C 172.632,281.265 175.799,286.598 179.5,291.5C 183.008,298.507 187.508,304.84 193,310.5C 199.475,313.541 205.641,317.707 211.5,323C 216.01,328.342 220.677,333.508 225.5,338.5C 230.799,339.96 236.132,341.293 241.5,342.5C 243.03,342.64 244.03,343.307 244.5,344.5C 244.5,344.833 244.5,345.167 244.5,345.5C 243.778,345.082 243.278,344.416 243,343.5C 242.323,345.689 241.156,346.022 239.5,344.5C 237.164,346.073 237.164,347.406 239.5,348.5C 240.246,349.736 240.579,351.07 240.5,352.5C 240.833,352.5 241.167,352.5 241.5,352.5C 241.5,353.5 241.5,354.5 241.5,355.5C 240.802,357.667 239.469,359.5 237.5,361C 237.833,361.333 238.167,361.667 238.5,362C 235.962,362.613 233.629,364.113 231.5,366.5C 230.167,366.5 228.833,366.5 227.5,366.5C 225.06,365.762 223.06,364.429 221.5,362.5C 221.167,361.167 220.833,361.167 220.5,362.5C 169.355,318.431 150.522,264.098 164,199.5C 165.516,193.229 168.016,187.562 171.5,182.5C 173.381,185.452 176.048,187.452 179.5,188.5C 181.261,187.965 182.594,186.965 183.5,185.5C 185.027,185.573 186.027,184.906 186.5,183.5C 187.833,182.833 188.833,181.833 189.5,180.5C 192.721,179.291 195.721,177.624 198.5,175.5C 199.308,175.808 199.975,176.308 200.5,177C 199.373,178.753 198.373,180.587 197.5,182.5C 193.73,184.803 190.23,187.469 187,190.5C 184.578,195.766 186.411,197.932 192.5,197C 188.5,197.667 188.5,198.333 192.5,199C 188.977,204.012 185.31,208.846 181.5,213.5 Z M 289.5,334.5 C 293.101,338.716 297.768,341.049 303.5,341.5C 309.414,340.042 315.414,339.375 321.5,339.5C 323.535,341.73 325.868,342.063 328.5,340.5C 330.531,340.028 332.198,339.028 333.5,337.5C 334.15,337.804 334.817,338.137 335.5,338.5C 336.696,338.154 336.696,337.654 335.5,337C 336.333,336.833 337.167,336.667 338,336.5C 339.55,336.873 340.717,337.54 341.5,338.5C 341.918,339.222 342.584,339.722 343.5,340C 342.62,341.356 342.286,342.856 342.5,344.5C 341.167,344.833 341.167,345.167 342.5,345.5C 342.5,345.833 342.5,346.167 342.5,346.5C 341.512,347.795 340.512,349.128 339.5,350.5C 338.341,352.25 336.674,353.25 334.5,353.5C 332.761,351.618 330.594,350.285 328,349.5C 326.295,351.192 324.295,352.525 322,353.5C 317.606,353.924 313.106,353.924 308.5,353.5C 307.828,352.733 306.995,352.066 306,351.5C 305.601,351.728 305.435,352.062 305.5,352.5C 299.541,353.662 293.541,354.162 287.5,354C 286.167,352.667 284.833,351.333 283.5,350C 280.047,349.75 276.714,350.083 273.5,351C 273.167,350.667 272.833,350.333 272.5,350C 273.823,349.184 274.489,348.017 274.5,346.5C 275.931,345.22 276.598,343.553 276.5,341.5C 277.205,338.772 277.872,335.939 278.5,333C 282.433,332.116 286.099,332.616 289.5,334.5 Z M 249.5,380.5 C 252.304,379.362 255.304,379.195 258.5,380C 262.174,380.288 263.007,381.788 261,384.5C 257.261,382.865 253.427,381.531 249.5,380.5 Z"/></g>
<g><path style="opacity:0.031" fill="#374047" d="M 279.5,66.5 C 284.207,66.9487 288.874,67.6153 293.5,68.5C 294.167,68.1667 294.833,67.8333 295.5,67.5C 301.167,69.5568 306.833,71.2235 312.5,72.5C 302.927,71.7323 293.427,70.399 284,68.5C 282.014,68.4313 280.514,67.7647 279.5,66.5 Z"/></g>
<g><path style="opacity:1" fill="#7f5622" d="M 284.5,75.5 C 272.148,75.3512 259.815,75.6846 247.5,76.5C 254.605,74.9878 261.938,74.3211 269.5,74.5C 274.678,74.5007 279.678,74.834 284.5,75.5 Z"/></g>
<g><path style="opacity:1" fill="#ee9322" d="M 284.5,75.5 C 293.548,76.6723 302.548,78.1723 311.5,80C 318.863,82.951 326.197,85.7843 333.5,88.5C 333.33,89.8221 333.663,90.9887 334.5,92C 339.087,94.1301 343.753,95.9634 348.5,97.5C 377.447,114.777 399.447,138.444 414.5,168.5C 416.174,175.512 419.174,181.846 423.5,187.5C 442.739,237.686 441.906,287.686 421,337.5C 404.611,369.889 380.111,394.389 347.5,411C 340.979,412.95 334.646,415.283 328.5,418C 325.173,418.61 321.839,419.11 318.5,419.5C 324.485,417.448 330.485,415.281 336.5,413C 333.957,412.86 331.623,412.194 329.5,411C 331.973,409.598 331.973,408.098 329.5,406.5C 328.325,407.855 327.325,407.688 326.5,406C 330.411,404.545 334.411,403.378 338.5,402.5C 337.271,401.719 335.938,401.219 334.5,401C 334.273,399.865 333.94,398.698 333.5,397.5C 329.981,398.932 326.314,399.766 322.5,400C 321.333,401.167 320.167,402.333 319,403.5C 305.735,402.842 292.569,402.175 279.5,401.5C 290.172,401.667 300.839,401.5 311.5,401C 314.851,400.943 317.851,400.109 320.5,398.5C 326.695,399.211 332.028,397.544 336.5,393.5C 337.167,393.5 337.833,393.5 338.5,393.5C 340.527,393.662 342.527,393.495 344.5,393C 350.178,389.159 356.178,385.826 362.5,383C 363.305,381.887 363.972,380.721 364.5,379.5C 366.55,377.453 368.883,375.786 371.5,374.5C 377.053,371.068 381.719,366.735 385.5,361.5C 389.593,355.645 393.927,349.978 398.5,344.5C 403.883,339.743 407.216,333.743 408.5,326.5C 417.266,307.438 422.266,287.438 423.5,266.5C 424.175,253.431 424.842,240.265 425.5,227C 424.552,226.517 423.552,226.351 422.5,226.5C 420.835,221.205 420.502,215.871 421.5,210.5C 419.993,209.611 418.66,208.611 417.5,207.5C 412.31,195.107 406.81,182.774 401,170.5C 394.117,159.38 386.284,149.047 377.5,139.5C 375.5,135.5 372.5,132.5 368.5,130.5C 334.302,100.565 294.636,89.0654 249.5,96C 234.106,100.367 219.773,106.867 206.5,115.5C 206.414,114.504 206.748,113.671 207.5,113C 212.6,110.387 217.267,107.22 221.5,103.5C 218.832,102.262 216.166,102.262 213.5,103.5C 212.479,102.998 212.312,102.332 213,101.5C 214.167,100.333 215.333,99.1667 216.5,98C 213.877,95.8053 211.877,96.3053 210.5,99.5C 209.614,98.675 209.281,97.675 209.5,96.5C 207.8,96.6261 206.3,97.2927 205,98.5C 201.37,95.6155 198.537,96.2822 196.5,100.5C 195.264,101.246 193.93,101.579 192.5,101.5C 192.762,102.978 192.429,104.311 191.5,105.5C 190.264,104.754 188.93,104.421 187.5,104.5C 188.167,103.5 188.833,102.5 189.5,101.5C 193.624,97.7191 198.291,94.7191 203.5,92.5C 208.204,91.3148 212.537,89.3148 216.5,86.5C 217.5,85.8333 218.5,85.1667 219.5,84.5C 226.697,83.7632 233.364,81.7632 239.5,78.5C 241.905,77.2318 244.572,76.5651 247.5,76.5C 259.815,75.6846 272.148,75.3512 284.5,75.5 Z"/></g>
<g><path style="opacity:1" fill="#b17930" d="M 239.5,78.5 C 233.364,81.7632 226.697,83.7632 219.5,84.5C 222.943,82.5696 226.609,81.0696 230.5,80C 233.478,79.304 236.478,78.804 239.5,78.5 Z"/></g>
<g><path style="opacity:1" fill="#a4702d" d="M 216.5,86.5 C 212.537,89.3148 208.204,91.3148 203.5,92.5C 207.161,89.1715 211.494,87.1715 216.5,86.5 Z"/></g>
<g><path style="opacity:1" fill="#bf7e30" d="M 333.5,88.5 C 339.015,90.7525 344.015,93.7525 348.5,97.5C 343.753,95.9634 339.087,94.1301 334.5,92C 333.663,90.9887 333.33,89.8221 333.5,88.5 Z"/></g>
<g><path style="opacity:0.998" fill="#0b0807" d="M 368.5,130.5 C 371.167,133.833 374.167,136.833 377.5,139.5C 386.284,149.047 394.117,159.38 401,170.5C 406.81,182.774 412.31,195.107 417.5,207.5C 421.935,226.886 423.935,246.553 423.5,266.5C 422.266,287.438 417.266,307.438 408.5,326.5C 405.17,332.492 401.837,338.492 398.5,344.5C 393.927,349.978 389.593,355.645 385.5,361.5C 380.453,365.369 375.786,369.702 371.5,374.5C 368.883,375.786 366.55,377.453 364.5,379.5C 355.794,384.185 347.127,388.852 338.5,393.5C 337.833,393.5 337.167,393.5 336.5,393.5C 331.129,395.381 325.796,397.048 320.5,398.5C 295.122,402.91 270.455,400.576 246.5,391.5C 244.254,390.545 241.921,389.878 239.5,389.5C 223.844,381.204 209.511,370.871 196.5,358.5C 193.899,354.229 190.566,350.563 186.5,347.5C 181.497,340.158 176.497,332.825 171.5,325.5C 168.814,320.128 166.147,314.795 163.5,309.5C 159.568,300.623 156.234,291.623 153.5,282.5C 153.5,282.167 153.5,281.833 153.5,281.5C 152.038,273.725 150.705,266.059 149.5,258.5C 148.273,242.656 148.273,226.656 149.5,210.5C 151.839,202.342 154.006,194.009 156,185.5C 158.795,178.415 161.628,171.415 164.5,164.5C 170.834,155.322 177.001,145.989 183,136.5C 190.134,128.522 197.968,121.522 206.5,115.5C 219.773,106.867 234.106,100.367 249.5,96C 294.636,89.0654 334.302,100.565 368.5,130.5 Z M 181.5,213.5 C 176.621,219.259 173.287,225.925 171.5,233.5C 163.389,247.19 162.889,261.19 170,275.5C 172.632,281.265 175.799,286.598 179.5,291.5C 183.008,298.507 187.508,304.84 193,310.5C 199.475,313.541 205.641,317.707 211.5,323C 216.01,328.342 220.677,333.508 225.5,338.5C 230.799,339.96 236.132,341.293 241.5,342.5C 243.03,342.64 244.03,343.307 244.5,344.5C 244.5,344.833 244.5,345.167 244.5,345.5C 243.778,345.082 243.278,344.416 243,343.5C 242.323,345.689 241.156,346.022 239.5,344.5C 237.164,346.073 237.164,347.406 239.5,348.5C 240.246,349.736 240.579,351.07 240.5,352.5C 240.833,352.5 241.167,352.5 241.5,352.5C 241.5,353.5 241.5,354.5 241.5,355.5C 240.802,357.667 239.469,359.5 237.5,361C 237.833,361.333 238.167,361.667 238.5,362C 235.962,362.613 233.629,364.113 231.5,366.5C 230.167,366.5 228.833,366.5 227.5,366.5C 225.06,365.762 223.06,364.429 221.5,362.5C 221.167,361.167 220.833,361.167 220.5,362.5C 169.355,318.431 150.522,264.098 164,199.5C 165.516,193.229 168.016,187.562 171.5,182.5C 173.381,185.452 176.048,187.452 179.5,188.5C 181.261,187.965 182.594,186.965 183.5,185.5C 185.027,185.573 186.027,184.906 186.5,183.5C 187.833,182.833 188.833,181.833 189.5,180.5C 192.721,179.291 195.721,177.624 198.5,175.5C 199.308,175.808 199.975,176.308 200.5,177C 199.373,178.753 198.373,180.587 197.5,182.5C 193.73,184.803 190.23,187.469 187,190.5C 184.578,195.766 186.411,197.932 192.5,197C 188.5,197.667 188.5,198.333 192.5,199C 188.977,204.012 185.31,208.846 181.5,213.5 Z M 289.5,334.5 C 293.101,338.716 297.768,341.049 303.5,341.5C 309.414,340.042 315.414,339.375 321.5,339.5C 323.535,341.73 325.868,342.063 328.5,340.5C 330.531,340.028 332.198,339.028 333.5,337.5C 334.15,337.804 334.817,338.137 335.5,338.5C 336.696,338.154 336.696,337.654 335.5,337C 336.333,336.833 337.167,336.667 338,336.5C 339.55,336.873 340.717,337.54 341.5,338.5C 341.918,339.222 342.584,339.722 343.5,340C 342.62,341.356 342.286,342.856 342.5,344.5C 341.167,344.833 341.167,345.167 342.5,345.5C 342.5,345.833 342.5,346.167 342.5,346.5C 341.512,347.795 340.512,349.128 339.5,350.5C 338.341,352.25 336.674,353.25 334.5,353.5C 332.761,351.618 330.594,350.285 328,349.5C 326.295,351.192 324.295,352.525 322,353.5C 317.606,353.924 313.106,353.924 308.5,353.5C 307.828,352.733 306.995,352.066 306,351.5C 305.601,351.728 305.435,352.062 305.5,352.5C 299.541,353.662 293.541,354.162 287.5,354C 286.167,352.667 284.833,351.333 283.5,350C 280.047,349.75 276.714,350.083 273.5,351C 273.167,350.667 272.833,350.333 272.5,350C 273.823,349.184 274.489,348.017 274.5,346.5C 275.931,345.22 276.598,343.553 276.5,341.5C 277.205,338.772 277.872,335.939 278.5,333C 282.433,332.116 286.099,332.616 289.5,334.5 Z M 249.5,380.5 C 253.427,381.531 257.261,382.865 261,384.5C 263.007,381.788 262.174,380.288 258.5,380C 255.304,379.195 252.304,379.362 249.5,380.5 Z"/></g>
<g><path style="opacity:1" fill="#e6e6e6" d="M 285.5,106.5 C 287.265,107.461 289.265,107.795 291.5,107.5C 291.5,104.5 291.5,101.5 291.5,98.5C 292.833,98.5 294.167,98.5 295.5,98.5C 296.938,105.752 297.604,113.086 297.5,120.5C 296.022,120.762 294.689,120.429 293.5,119.5C 292.607,116.916 292.274,114.249 292.5,111.5C 290.5,111.5 288.5,111.5 286.5,111.5C 286.5,114.5 286.5,117.5 286.5,120.5C 284.517,120.843 283.183,120.176 282.5,118.5C 282.23,113.972 281.563,109.639 280.5,105.5C 279.735,102.904 279.401,100.237 279.5,97.5C 281.167,97.5 282.833,97.5 284.5,97.5C 284.19,100.713 284.523,103.713 285.5,106.5 Z"/></g>
<g><path style="opacity:1" fill="#f4951f" d="M 206.5,115.5 C 197.968,121.522 190.134,128.522 183,136.5C 177.001,145.989 170.834,155.322 164.5,164.5C 163.624,164.369 162.957,164.702 162.5,165.5C 162.066,169.664 160.232,172.998 157,175.5C 154.75,183.793 152.417,192.126 150,200.5C 149.502,203.817 149.335,207.15 149.5,210.5C 148.273,226.656 148.273,242.656 149.5,258.5C 149.171,264.537 149.504,270.537 150.5,276.5C 151.001,278.655 152.001,280.322 153.5,281.5C 153.5,281.833 153.5,282.167 153.5,282.5C 153.425,286.897 153.925,291.23 155,295.5C 157.875,298.614 159.709,302.281 160.5,306.5C 161.288,307.77 162.288,308.77 163.5,309.5C 164.013,313.553 164.846,317.553 166,321.5C 168.034,322.721 169.867,324.055 171.5,325.5C 171.247,327.827 171.914,329.827 173.5,331.5C 172.617,332.548 171.95,333.715 171.5,335C 172.581,336.371 173.415,337.871 174,339.5C 175.778,336.868 177.278,337.035 178.5,340C 178.095,340.945 177.428,341.612 176.5,342C 177.667,342.5 178.5,343.333 179,344.5C 179.333,344.167 179.667,343.833 180,343.5C 180.169,350.856 180.669,358.189 181.5,365.5C 182.833,366.167 183.833,367.167 184.5,368.5C 182.363,369.08 180.53,370.08 179,371.5C 177.829,367.987 176.662,364.487 175.5,361C 175.493,359.188 176.16,357.688 177.5,356.5C 173.5,355.833 169.5,355.167 165.5,354.5C 164.312,352.738 162.645,351.738 160.5,351.5C 157.406,347.074 154.739,342.407 152.5,337.5C 149.076,331.871 146.243,325.871 144,319.5C 143.667,316.167 143.333,312.833 143,309.5C 141.488,308.743 140.154,307.743 139,306.5C 137.974,303.761 136.474,301.428 134.5,299.5C 133.335,292.512 132.169,285.512 131,278.5C 130.094,273.214 128.594,268.214 126.5,263.5C 126.5,263.167 126.5,262.833 126.5,262.5C 126.333,246.163 126.5,229.83 127,213.5C 128.06,207.321 129.727,201.321 132,195.5C 132.333,195.833 132.667,196.167 133,196.5C 133.762,187.048 135.262,177.715 137.5,168.5C 137.5,167.833 137.833,167.5 138.5,167.5C 142.067,160.701 145.901,154.034 150,147.5C 150.49,146.207 150.657,144.873 150.5,143.5C 154.033,140.752 157.2,137.419 160,133.5C 160.49,132.207 160.657,130.873 160.5,129.5C 164.628,126.71 167.628,123.043 169.5,118.5C 170.167,118.5 170.5,118.167 170.5,117.5C 173.225,116.287 175.559,114.454 177.5,112C 182.929,112.134 186.263,109.634 187.5,104.5C 188.93,104.421 190.264,104.754 191.5,105.5C 192.429,104.311 192.762,102.978 192.5,101.5C 193.93,101.579 195.264,101.246 196.5,100.5C 198.537,96.2822 201.37,95.6155 205,98.5C 206.3,97.2927 207.8,96.6261 209.5,96.5C 209.281,97.675 209.614,98.675 210.5,99.5C 211.877,96.3053 213.877,95.8053 216.5,98C 215.333,99.1667 214.167,100.333 213,101.5C 212.312,102.332 212.479,102.998 213.5,103.5C 216.166,102.262 218.832,102.262 221.5,103.5C 217.267,107.22 212.6,110.387 207.5,113C 206.748,113.671 206.414,114.504 206.5,115.5 Z"/></g>
<g><path style="opacity:1" fill="#857e78" d="M 271.5,102.5 C 272.931,102.881 273.764,103.881 274,105.5C 274.798,107.259 274.631,108.926 273.5,110.5C 272.914,110.291 272.414,109.957 272,109.5C 271.503,107.19 271.337,104.857 271.5,102.5 Z"/></g>
<g><path style="opacity:1" fill="#555555" d="M 291.5,98.5 C 291.5,101.5 291.5,104.5 291.5,107.5C 289.265,107.795 287.265,107.461 285.5,106.5C 287.167,106.5 288.833,106.5 290.5,106.5C 290.194,103.615 290.527,100.948 291.5,98.5 Z"/></g>
<g><path style="opacity:1" fill="#dddddd" d="M 310.5,102.5 C 311.833,102.5 313.167,102.5 314.5,102.5C 314.5,109.833 314.5,117.167 314.5,124.5C 312.856,124.714 311.356,124.38 310,123.5C 309.577,116.491 309.744,109.491 310.5,102.5 Z"/></g>
<g><path style="opacity:1" fill="#c3802b" d="M 189.5,101.5 C 188.833,102.5 188.167,103.5 187.5,104.5C 186.263,109.634 182.929,112.134 177.5,112C 175.559,114.454 173.225,116.287 170.5,117.5C 172.628,114.87 174.961,112.37 177.5,110C 181.675,107.311 185.675,104.477 189.5,101.5 Z"/></g>
<g><path style="opacity:1" fill="#585858" d="M 280.5,105.5 C 281.563,109.639 282.23,113.972 282.5,118.5C 281.732,117.737 281.232,116.737 281,115.5C 280.502,112.183 280.335,108.85 280.5,105.5 Z"/></g>
<g><path style="opacity:1" fill="#e2e2e2" d="M 256.5,99.5 C 259.187,99.3359 261.854,99.5026 264.5,100C 265.406,101.699 265.739,103.533 265.5,105.5C 258.019,103.494 254.853,106.161 256,113.5C 259.016,118.701 263.016,119.701 268,116.5C 272.805,118.948 272.638,121.114 267.5,123C 254.861,124.025 249.361,118.192 251,105.5C 252.36,102.977 254.193,100.977 256.5,99.5 Z"/></g>
<g><path style="opacity:1" fill="#dcdcdc" d="M 345.5,118.5 C 347.09,118.628 348.423,119.295 349.5,120.5C 346.73,125.922 344.73,131.588 343.5,137.5C 340.757,137.923 339.424,136.756 339.5,134C 340.631,128.431 342.631,123.264 345.5,118.5 Z"/></g>
<g><path style="opacity:1" fill="#e69e47" d="M 333.5,125.5 C 333.167,125.5 332.833,125.5 332.5,125.5C 328.686,127.913 325.019,130.579 321.5,133.5C 321.359,128.749 321.359,123.749 321.5,118.5C 321.5,115.833 321.5,113.167 321.5,110.5C 326.239,112.616 331.072,114.616 336,116.5C 336.097,119.716 335.264,122.716 333.5,125.5 Z"/></g>
<g><path style="opacity:1" fill="#946427" d="M 169.5,118.5 C 167.628,123.043 164.628,126.71 160.5,129.5C 163.129,125.537 166.129,121.871 169.5,118.5 Z"/></g>
<g><path style="opacity:1" fill="#a0a09f" d="M 304.5,129.5 C 302.052,130.473 299.385,130.806 296.5,130.5C 290.443,130.361 284.443,129.694 278.5,128.5C 287.289,127.04 295.955,127.373 304.5,129.5 Z"/></g>
<g><path style="opacity:1" fill="#e5e5e5" d="M 223.5,112.5 C 236.051,112.215 241.885,118.215 241,130.5C 237.723,136.109 232.89,137.942 226.5,136C 217.386,128.928 216.386,121.095 223.5,112.5 Z"/></g>
<g><path style="opacity:1" fill="#121212" d="M 225.5,118.5 C 234.183,118.002 237.516,121.835 235.5,130C 228.831,132.691 225.164,130.358 224.5,123C 224.605,121.408 224.939,119.908 225.5,118.5 Z"/></g>
<g><path style="opacity:1" fill="#e3e3e3" d="M 249.5,128.5 C 253.584,130.117 257.917,130.95 262.5,131C 257.69,134.149 253.19,137.649 249,141.5C 249.196,137.209 249.363,132.876 249.5,128.5 Z"/></g>
<g><path style="opacity:1" fill="#f2f0ec" d="M 332.5,125.5 C 332.5,129.5 332.5,133.5 332.5,137.5C 331.5,137.5 330.5,137.5 329.5,137.5C 327.113,135.897 324.446,134.897 321.5,134.5C 321.5,134.167 321.5,133.833 321.5,133.5C 325.019,130.579 328.686,127.913 332.5,125.5 Z"/></g>
<g><path style="opacity:1" fill="#775020" d="M 368.5,130.5 C 372.5,132.5 375.5,135.5 377.5,139.5C 374.167,136.833 371.167,133.833 368.5,130.5 Z"/></g>
<g><path style="opacity:1" fill="#674d2f" d="M 321.5,118.5 C 321.359,123.749 321.359,128.749 321.5,133.5C 321.5,133.833 321.5,134.167 321.5,134.5C 313.058,133.074 304.724,131.741 296.5,130.5C 299.385,130.806 302.052,130.473 304.5,129.5C 309.74,130.449 315.073,130.782 320.5,130.5C 320.183,126.298 320.517,122.298 321.5,118.5 Z"/></g>
<g><path style="opacity:1" fill="#bd7c2f" d="M 160.5,129.5 C 160.657,130.873 160.49,132.207 160,133.5C 157.2,137.419 154.033,140.752 150.5,143.5C 152.855,138.12 156.188,133.454 160.5,129.5 Z"/></g>
<g><path style="opacity:1" fill="#e5e6e5" d="M 362.5,154.5 C 362.827,149.456 362.494,144.456 361.5,139.5C 360.893,139.624 360.56,139.957 360.5,140.5C 359.052,142.555 357.719,144.722 356.5,147C 354.609,147.309 353.275,146.475 352.5,144.5C 355.355,139.443 358.688,134.777 362.5,130.5C 363.478,130.977 364.311,131.643 365,132.5C 365.333,137.167 365.667,141.833 366,146.5C 367.586,143.659 369.42,140.993 371.5,138.5C 373.046,139.212 374.046,140.378 374.5,142C 371.964,146.235 369.298,150.402 366.5,154.5C 365.192,155.626 363.858,155.626 362.5,154.5 Z"/></g>
<g><path style="opacity:1" fill="#8c8b8b" d="M 332.5,125.5 C 332.833,125.5 333.167,125.5 333.5,125.5C 333.827,130.214 333.493,134.88 332.5,139.5C 331.261,139.058 330.261,138.391 329.5,137.5C 330.5,137.5 331.5,137.5 332.5,137.5C 332.5,133.5 332.5,129.5 332.5,125.5 Z"/></g>
<g><path style="opacity:1" fill="#53280e" d="M 343.5,162.5 C 337.683,157.524 331.683,152.691 325.5,148C 320.355,144.627 314.689,142.627 308.5,142C 298.522,140.668 288.522,140.001 278.5,140C 271.703,141.33 266.036,144.496 261.5,149.5C 257.856,151.657 254.19,153.824 250.5,156C 246.442,156.767 242.442,156.6 238.5,155.5C 237.702,155.957 237.369,156.624 237.5,157.5C 235.896,156.713 235.229,155.38 235.5,153.5C 240.14,154.397 244.806,154.564 249.5,154C 256.45,149.385 263.116,144.385 269.5,139C 274.088,137.716 278.755,136.882 283.5,136.5C 294.189,137.469 304.856,138.636 315.5,140C 327.322,144.41 336.655,151.91 343.5,162.5 Z"/></g>
<g><path style="opacity:1" fill="#777777" d="M 360.5,140.5 C 360.56,139.957 360.893,139.624 361.5,139.5C 362.494,144.456 362.827,149.456 362.5,154.5C 361.833,149.833 361.167,145.167 360.5,140.5 Z"/></g>
<g><path style="opacity:1" fill="#c8c8c8" d="M 339.5,145.5 C 341.948,144.527 344.615,144.194 347.5,144.5C 346.167,151.833 349.167,154.833 356.5,153.5C 356.5,154.5 356.5,155.5 356.5,156.5C 354.473,156.662 352.473,156.495 350.5,156C 346.991,152.324 343.324,148.824 339.5,145.5 Z"/></g>
<g><path style="opacity:1" fill="#e6e6e6" d="M 199.5,132.5 C 206.742,137.062 213.742,142.062 220.5,147.5C 219.788,149.046 218.622,150.046 217,150.5C 213.609,149.114 210.775,146.948 208.5,144C 207.668,143.312 207.002,143.479 206.5,144.5C 209.264,147.923 211.598,151.59 213.5,155.5C 213.547,157 212.881,158 211.5,158.5C 207.5,156.652 203.5,155.152 199.5,154C 202,156.5 204.5,159 207,161.5C 207.624,163.464 207.124,165.131 205.5,166.5C 203.972,165.139 202.305,163.972 200.5,163C 195.638,158.638 191.304,153.805 187.5,148.5C 187.775,146.391 188.942,145.058 191,144.5C 194.902,146.358 198.902,148.024 203,149.5C 203.667,148.5 203.667,147.5 203,146.5C 200.896,143.29 199.063,139.957 197.5,136.5C 197.752,134.927 198.418,133.594 199.5,132.5 Z"/></g>
<g><path style="opacity:1" fill="#e7a46b" d="M 343.5,162.5 C 344.058,163.79 345.058,164.623 346.5,165C 350.311,164.917 353.645,165.75 356.5,167.5C 355.833,167.5 355.5,167.833 355.5,168.5C 353.199,169.06 350.866,169.56 348.5,170C 353.036,171.379 357.703,171.879 362.5,171.5C 362.548,174.292 361.215,176.125 358.5,177C 360.81,177.497 363.143,177.663 365.5,177.5C 368.423,178.542 371.09,179.875 373.5,181.5C 374.141,182.482 374.807,183.482 375.5,184.5C 369.898,185.734 364.231,186.567 358.5,187C 361.852,188.17 365.186,189.336 368.5,190.5C 370.477,192.814 372.477,195.147 374.5,197.5C 372.257,198.474 369.924,198.808 367.5,198.5C 361.797,199.443 356.797,198.11 352.5,194.5C 351.893,194.624 351.56,194.957 351.5,195.5C 349.737,191.04 348.237,186.373 347,181.5C 344.331,178 341.498,174.667 338.5,171.5C 342.594,173.092 345.594,175.925 347.5,180C 348.5,180.667 349.5,180.667 350.5,180C 349.337,175.495 346.837,171.995 343,169.5C 342.64,167.579 341.806,165.912 340.5,164.5C 335.604,161.132 330.437,158.132 325,155.5C 324.5,155.667 324,155.833 323.5,156C 324.337,157.011 324.67,158.178 324.5,159.5C 320.44,160.152 318.44,158.485 318.5,154.5C 315.127,154.198 311.96,153.198 309,151.5C 307.893,151.585 306.893,151.919 306,152.5C 303.667,150.833 301.333,149.167 299,147.5C 298.517,148.448 298.351,149.448 298.5,150.5C 296.173,150.665 294.007,151.331 292,152.5C 291.517,151.552 291.351,150.552 291.5,149.5C 289.143,149.337 286.81,149.503 284.5,150C 281.626,152.041 278.626,153.874 275.5,155.5C 275.132,153.2 275.132,151.033 275.5,149C 273.332,148.751 271.665,149.584 270.5,151.5C 264.75,154.108 258.75,156.108 252.5,157.5C 255.814,155.176 258.814,152.509 261.5,149.5C 266.036,144.496 271.703,141.33 278.5,140C 288.522,140.001 298.522,140.668 308.5,142C 314.689,142.627 320.355,144.627 325.5,148C 331.683,152.691 337.683,157.524 343.5,162.5 Z"/></g>
<g><path style="opacity:1" fill="#e59c5e" d="M 338.5,171.5 C 323.134,166.849 313.134,172.182 308.5,187.5C 306.782,189.364 305.615,191.697 305,194.5C 304.012,200.071 304.678,205.405 307,210.5C 310.892,212.53 314.725,214.697 318.5,217C 322.085,220.865 325.418,224.865 328.5,229C 333.557,231.999 338.557,232.166 343.5,229.5C 345.475,227.863 347.475,226.196 349.5,224.5C 349.833,224.5 350.167,224.5 350.5,224.5C 360.11,233.408 363.276,244.408 360,257.5C 359.08,260.938 357.413,263.938 355,266.5C 354.867,269.525 353.867,272.192 352,274.5C 351.667,273.167 351.333,271.833 351,270.5C 349.654,276.508 346.654,281.508 342,285.5C 340.725,287.717 339.725,290.051 339,292.5C 338.31,293.738 337.81,293.738 337.5,292.5C 337.795,290.265 337.461,288.265 336.5,286.5C 338.878,282.376 340.878,278.042 342.5,273.5C 342.369,272.761 342.536,272.094 343,271.5C 352.719,265.395 357.053,256.728 356,245.5C 353.795,242.96 351.295,240.793 348.5,239C 341.172,239.11 333.838,239.11 326.5,239C 324.449,237.033 322.782,234.866 321.5,232.5C 321.411,225.895 318.077,221.729 311.5,220C 304.392,219.076 297.392,219.409 290.5,221C 286.952,223.591 285.618,227.091 286.5,231.5C 285.582,233.82 284.248,235.987 282.5,238C 278.179,238.499 273.846,238.666 269.5,238.5C 255.891,235.281 249.391,240.614 250,254.5C 251.697,259.407 254.53,263.407 258.5,266.5C 260.212,269.711 262.879,271.544 266.5,272C 270.467,276.77 273.8,281.937 276.5,287.5C 275.709,289.309 275.709,291.309 276.5,293.5C 276.649,294.552 276.483,295.552 276,296.5C 272.766,289.931 268.099,284.598 262,280.5C 261.044,277.623 259.711,274.956 258,272.5C 257.667,273.833 257.333,275.167 257,276.5C 255.139,274.112 253.806,271.446 253,268.5C 252,267.833 251,267.167 250,266.5C 248.463,262.771 246.963,259.105 245.5,255.5C 246.151,256.091 246.818,256.757 247.5,257.5C 247.833,256.833 248.167,256.167 248.5,255.5C 246.584,250.998 246.084,246.332 247,241.5C 247.333,241.833 247.667,242.167 248,242.5C 251.073,241.761 253.24,239.928 254.5,237C 256.256,236.798 257.922,236.298 259.5,235.5C 260.641,234.575 260.641,233.741 259.5,233C 262.817,232.502 266.15,232.335 269.5,232.5C 269.5,230.833 269.5,229.167 269.5,227.5C 265.361,228.296 262.195,226.963 260,223.5C 259.187,221.564 258.687,219.564 258.5,217.5C 260.467,217.739 262.301,217.406 264,216.5C 265.188,217.563 265.688,218.897 265.5,220.5C 269.042,220.813 272.375,220.479 275.5,219.5C 279.565,217.767 282.232,214.767 283.5,210.5C 284.23,206.939 284.897,203.273 285.5,199.5C 286.88,199.962 287.547,200.962 287.5,202.5C 285.338,210.15 282.672,217.65 279.5,225C 280.167,226.333 280.833,227.667 281.5,229C 280.373,230.057 279.873,231.223 280,232.5C 281.356,231.62 282.856,231.286 284.5,231.5C 284.335,227.818 284.501,224.152 285,220.5C 287.072,216.444 288.239,212.111 288.5,207.5C 289.5,207.5 290.5,207.5 291.5,207.5C 291.244,205.208 291.577,203.041 292.5,201C 294.129,200.415 295.629,199.581 297,198.5C 298.559,199.029 300.059,199.696 301.5,200.5C 303.961,194.776 305.627,188.776 306.5,182.5C 307.748,181.96 308.915,181.293 310,180.5C 311.798,177.242 313.298,173.909 314.5,170.5C 312.5,170.5 310.5,170.5 308.5,170.5C 308.649,169.448 308.483,168.448 308,167.5C 306.992,172.541 306.492,172.208 306.5,166.5C 308.199,166.66 309.866,166.494 311.5,166C 307.551,165.193 307.551,164.693 311.5,164.5C 311.34,162.801 311.506,161.134 312,159.5C 312.333,161.833 312.667,164.167 313,166.5C 313.913,162.825 313.247,159.492 311,156.5C 309.983,159.028 308.816,159.028 307.5,156.5C 306.914,156.709 306.414,157.043 306,157.5C 305.16,154.536 304.16,154.203 303,156.5C 300.054,153.457 298.888,154.124 299.5,158.5C 295.486,158.666 291.486,158.499 287.5,158C 288.308,157.692 288.975,157.192 289.5,156.5C 288.754,155.264 288.421,153.93 288.5,152.5C 284.562,154.13 280.562,155.797 276.5,157.5C 275.5,157.333 274.5,157.167 273.5,157C 273.12,154.674 272.12,152.841 270.5,151.5C 271.665,149.584 273.332,148.751 275.5,149C 275.132,151.033 275.132,153.2 275.5,155.5C 278.626,153.874 281.626,152.041 284.5,150C 286.81,149.503 289.143,149.337 291.5,149.5C 291.351,150.552 291.517,151.552 292,152.5C 294.007,151.331 296.173,150.665 298.5,150.5C 298.351,149.448 298.517,148.448 299,147.5C 301.333,149.167 303.667,150.833 306,152.5C 306.893,151.919 307.893,151.585 309,151.5C 311.96,153.198 315.127,154.198 318.5,154.5C 318.44,158.485 320.44,160.152 324.5,159.5C 324.67,158.178 324.337,157.011 323.5,156C 324,155.833 324.5,155.667 325,155.5C 330.437,158.132 335.604,161.132 340.5,164.5C 341.806,165.912 342.64,167.579 343,169.5C 346.837,171.995 349.337,175.495 350.5,180C 349.5,180.667 348.5,180.667 347.5,180C 345.594,175.925 342.594,173.092 338.5,171.5 Z"/></g>
<g><path style="opacity:1" fill="#a06e2e" d="M 150.5,143.5 C 150.657,144.873 150.49,146.207 150,147.5C 145.901,154.034 142.067,160.701 138.5,167.5C 140.94,158.62 144.94,150.62 150.5,143.5 Z"/></g>
<g><path style="opacity:0.999" fill="#efefef" d="M 196.5,173.5 C 194.398,176.01 192.065,178.344 189.5,180.5C 188.833,181.833 187.833,182.833 186.5,183.5C 184.973,183.427 183.973,184.094 183.5,185.5C 181.77,182.892 179.937,182.892 178,185.5C 173.348,183.873 171.515,180.54 172.5,175.5C 174.645,169.53 177.812,164.197 182,159.5C 187.324,163.657 192.157,168.324 196.5,173.5 Z"/></g>
<g><path style="opacity:1" fill="#4b2a13" d="M 343.5,162.5 C 348.438,163.392 353.438,163.726 358.5,163.5C 358.771,165.38 358.104,166.713 356.5,167.5C 353.645,165.75 350.311,164.917 346.5,165C 345.058,164.623 344.058,163.79 343.5,162.5 Z"/></g>
<g><path style="opacity:1" fill="#bd8353" d="M 261.5,149.5 C 258.814,152.509 255.814,155.176 252.5,157.5C 249.428,157.183 246.428,157.516 243.5,158.5C 245.766,159.432 247.766,160.766 249.5,162.5C 245.779,164.573 241.779,165.74 237.5,166C 236.939,167.676 235.939,169.009 234.5,170C 231.167,170.667 227.833,170.667 224.5,170C 227.167,169.667 229.833,169.333 232.5,169C 227.806,168.436 223.14,168.603 218.5,169.5C 223.212,167.845 228.212,167.012 233.5,167C 230.384,165.614 229.384,163.448 230.5,160.5C 233.494,161.748 236.494,161.748 239.5,160.5C 238.807,159.482 238.141,158.482 237.5,157.5C 237.369,156.624 237.702,155.957 238.5,155.5C 242.442,156.6 246.442,156.767 250.5,156C 254.19,153.824 257.856,151.657 261.5,149.5 Z"/></g>
<g><path style="opacity:1" fill="#e1e1e1" d="M 383.5,154.5 C 385.849,154.458 387.182,155.625 387.5,158C 385.022,160.478 382.522,162.978 380,165.5C 379.333,167.167 379.333,168.833 380,170.5C 381.049,171.517 382.216,171.684 383.5,171C 385.7,168.466 388.2,166.299 391,164.5C 392.732,164.734 393.566,165.734 393.5,167.5C 390.676,171.828 386.843,174.828 382,176.5C 380.289,176.561 378.956,175.894 378,174.5C 376.529,171.899 375.363,169.233 374.5,166.5C 374.667,165.5 374.833,164.5 375,163.5C 378.087,160.584 380.921,157.584 383.5,154.5 Z"/></g>
<g><path style="opacity:1" fill="#4a2a15" d="M 355.5,168.5 C 355.97,169.693 356.97,170.36 358.5,170.5C 360.512,170.16 362.512,169.827 364.5,169.5C 364.683,171.936 364.016,174.103 362.5,176C 363.737,176.232 364.737,176.732 365.5,177.5C 363.143,177.663 360.81,177.497 358.5,177C 361.215,176.125 362.548,174.292 362.5,171.5C 357.703,171.879 353.036,171.379 348.5,170C 350.866,169.56 353.199,169.06 355.5,168.5 Z"/></g>
<g><path style="opacity:1" fill="#b67c2f" d="M 414.5,168.5 C 418.063,174.498 421.063,180.832 423.5,187.5C 419.174,181.846 416.174,175.512 414.5,168.5 Z"/></g>
<g><path style="opacity:1" fill="#553015" d="M 218.5,169.5 C 217.833,170.5 217.167,171.5 216.5,172.5C 215.005,172.415 214.005,173.081 213.5,174.5C 217.122,175.325 220.789,175.825 224.5,176C 225.942,176.377 226.942,177.21 227.5,178.5C 222.659,176.848 217.659,176.182 212.5,176.5C 212.459,172.5 214.459,170.167 218.5,169.5 Z"/></g>
<g><path style="opacity:1" fill="#a86633" d="M 216.5,172.5 C 222.995,173.98 229.662,175.314 236.5,176.5C 240.108,175.352 243.775,174.852 247.5,175C 245.253,176.277 243.253,177.777 241.5,179.5C 235.635,181.673 229.635,183.339 223.5,184.5C 224.736,182.957 226.402,181.957 228.5,181.5C 229.798,179.948 229.465,178.948 227.5,178.5C 226.942,177.21 225.942,176.377 224.5,176C 220.789,175.825 217.122,175.325 213.5,174.5C 214.005,173.081 215.005,172.415 216.5,172.5 Z"/></g>
<g><path style="opacity:1" fill="#faf9f5" d="M 338.5,171.5 C 341.498,174.667 344.331,178 347,181.5C 348.237,186.373 349.737,191.04 351.5,195.5C 352.15,197.435 352.483,199.435 352.5,201.5C 353.195,209.451 352.195,217.118 349.5,224.5C 347.475,226.196 345.475,227.863 343.5,229.5C 339.818,229.665 336.152,229.499 332.5,229C 336.769,229.212 340.269,227.712 343,224.5C 343.54,222.865 343.04,221.532 341.5,220.5C 342.127,219.583 342.461,218.583 342.5,217.5C 342.878,215.079 343.545,212.746 344.5,210.5C 346.496,203.557 346.83,196.557 345.5,189.5C 341.961,181.064 335.628,177.897 326.5,180C 324.859,181.129 323.859,182.629 323.5,184.5C 320.797,191.881 320.13,199.548 321.5,207.5C 321.747,208.713 322.414,209.38 323.5,209.5C 323.5,209.833 323.5,210.167 323.5,210.5C 323.244,212.792 323.577,214.959 324.5,217C 323.207,217.49 321.873,217.657 320.5,217.5C 320.5,216.167 320.5,214.833 320.5,213.5C 319.167,213.5 317.833,213.5 316.5,213.5C 315.503,209.508 314.503,205.508 313.5,201.5C 309.988,201.356 307.654,199.69 306.5,196.5C 307.642,193.601 308.308,190.601 308.5,187.5C 313.134,172.182 323.134,166.849 338.5,171.5 Z"/></g>
<g><path style="opacity:1" fill="#583218" d="M 345.5,189.5 C 345.657,190.873 345.49,192.207 345,193.5C 343.5,190.667 341.333,188.5 338.5,187C 333.396,186.002 328.396,185.169 323.5,184.5C 323.859,182.629 324.859,181.129 326.5,180C 335.628,177.897 341.961,181.064 345.5,189.5 Z"/></g>
<g><path style="opacity:1" fill="#562d12" d="M 227.5,178.5 C 229.465,178.948 229.798,179.948 228.5,181.5C 226.402,181.957 224.736,182.957 223.5,184.5C 220.5,185.5 218.5,187.5 217.5,190.5C 217.279,192.664 216.279,194.33 214.5,195.5C 209.568,196.94 207.068,200.273 207,205.5C 204.71,209.773 202.21,213.773 199.5,217.5C 200.321,210.522 202.821,204.189 207,198.5C 213.087,190.911 219.92,184.244 227.5,178.5 Z"/></g>
<g><path style="opacity:0.986" fill="#a3a7ab" d="M 172.5,175.5 C 171.515,180.54 173.348,183.873 178,185.5C 179.937,182.892 181.77,182.892 183.5,185.5C 182.594,186.965 181.261,187.965 179.5,188.5C 176.048,187.452 173.381,185.452 171.5,182.5C 169.914,179.784 170.247,177.45 172.5,175.5 Z"/></g>
<g><path style="opacity:0.996" fill="#58331f" d="M 203.5,177.5 C 203.664,180.187 203.497,182.854 203,185.5C 200.223,188.756 197.723,192.089 195.5,195.5C 192.753,195.813 190.086,195.48 187.5,194.5C 188.668,192.783 190.335,192.116 192.5,192.5C 191.597,188.243 193.264,185.743 197.5,185C 198.69,181.75 200.69,179.25 203.5,177.5 Z"/></g>
<g><path style="opacity:1" fill="#e5a66f" d="M 241.5,179.5 C 244.205,179.38 244.872,180.38 243.5,182.5C 244.167,183.167 244.833,183.833 245.5,184.5C 244.014,186.302 243.014,188.302 242.5,190.5C 239.906,191.97 237.073,192.636 234,192.5C 228.572,191.304 223.072,190.637 217.5,190.5C 218.5,187.5 220.5,185.5 223.5,184.5C 229.635,183.339 235.635,181.673 241.5,179.5 Z"/></g>
<g><path style="opacity:0.004" fill="#201f3d" d="M 186.5,183.5 C 186.027,184.906 185.027,185.573 183.5,185.5C 183.973,184.094 184.973,183.427 186.5,183.5 Z"/></g>
<g><path style="opacity:0.306" fill="#433530" d="M 196.5,173.5 C 198.717,174.369 201.05,174.702 203.5,174.5C 203.5,175.5 203.5,176.5 203.5,177.5C 200.69,179.25 198.69,181.75 197.5,185C 193.264,185.743 191.597,188.243 192.5,192.5C 190.335,192.116 188.668,192.783 187.5,194.5C 190.086,195.48 192.753,195.813 195.5,195.5C 194.02,200.453 192.02,205.119 189.5,209.5C 189.631,208.624 189.298,207.957 188.5,207.5C 186.362,209.735 184.029,211.735 181.5,213.5C 185.31,208.846 188.977,204.012 192.5,199C 188.5,198.333 188.5,197.667 192.5,197C 186.411,197.932 184.578,195.766 187,190.5C 190.23,187.469 193.73,184.803 197.5,182.5C 198.373,180.587 199.373,178.753 200.5,177C 199.975,176.308 199.308,175.808 198.5,175.5C 195.721,177.624 192.721,179.291 189.5,180.5C 192.065,178.344 194.398,176.01 196.5,173.5 Z"/></g>
<g><path style="opacity:1" fill="#4a2914" d="M 373.5,181.5 C 375.809,182.388 377.476,184.054 378.5,186.5C 374.833,187.167 371.167,187.833 367.5,188.5C 367.863,189.183 368.196,189.85 368.5,190.5C 365.186,189.336 361.852,188.17 358.5,187C 364.231,186.567 369.898,185.734 375.5,184.5C 374.807,183.482 374.141,182.482 373.5,181.5 Z"/></g>
<g><path style="opacity:1" fill="#bf8031" d="M 164.5,164.5 C 161.628,171.415 158.795,178.415 156,185.5C 154.006,194.009 151.839,202.342 149.5,210.5C 149.335,207.15 149.502,203.817 150,200.5C 152.417,192.126 154.75,183.793 157,175.5C 160.232,172.998 162.066,169.664 162.5,165.5C 162.957,164.702 163.624,164.369 164.5,164.5 Z"/></g>
<g><path style="opacity:1" fill="#be8034" d="M 137.5,168.5 C 135.262,177.715 133.762,187.048 133,196.5C 132.667,196.167 132.333,195.833 132,195.5C 129.727,201.321 128.06,207.321 127,213.5C 126.5,229.83 126.333,246.163 126.5,262.5C 125.683,260.031 125.183,257.365 125,254.5C 123.196,232.223 124.863,210.223 130,188.5C 132.038,181.541 134.538,174.874 137.5,168.5 Z"/></g>
<g><path style="opacity:1" fill="#dfd2ca" d="M 323.5,184.5 C 328.396,185.169 333.396,186.002 338.5,187C 341.333,188.5 343.5,190.667 345,193.5C 345.49,192.207 345.657,190.873 345.5,189.5C 346.83,196.557 346.496,203.557 344.5,210.5C 345.171,200.537 340.838,194.204 331.5,191.5C 328.003,192.155 325.503,194.155 324,197.5C 323.501,201.486 323.334,205.486 323.5,209.5C 322.414,209.38 321.747,208.713 321.5,207.5C 320.13,199.548 320.797,191.881 323.5,184.5 Z"/></g>
<g><path style="opacity:0.004" fill="#000000" d="M 113.5,197.5 C 114.833,198.167 114.833,198.167 113.5,197.5 Z"/></g>
<g><path style="opacity:1" fill="#e89b59" d="M 270.5,151.5 C 272.12,152.841 273.12,154.674 273.5,157C 274.5,157.167 275.5,157.333 276.5,157.5C 280.562,155.797 284.562,154.13 288.5,152.5C 288.421,153.93 288.754,155.264 289.5,156.5C 288.975,157.192 288.308,157.692 287.5,158C 291.486,158.499 295.486,158.666 299.5,158.5C 298.888,154.124 300.054,153.457 303,156.5C 304.16,154.203 305.16,154.536 306,157.5C 306.414,157.043 306.914,156.709 307.5,156.5C 308.816,159.028 309.983,159.028 311,156.5C 313.247,159.492 313.913,162.825 313,166.5C 312.667,164.167 312.333,161.833 312,159.5C 311.506,161.134 311.34,162.801 311.5,164.5C 307.551,164.693 307.551,165.193 311.5,166C 309.866,166.494 308.199,166.66 306.5,166.5C 306.492,172.208 306.992,172.541 308,167.5C 308.483,168.448 308.649,169.448 308.5,170.5C 310.5,170.5 312.5,170.5 314.5,170.5C 313.298,173.909 311.798,177.242 310,180.5C 308.915,181.293 307.748,181.96 306.5,182.5C 305.627,188.776 303.961,194.776 301.5,200.5C 300.059,199.696 298.559,199.029 297,198.5C 295.629,199.581 294.129,200.415 292.5,201C 291.577,203.041 291.244,205.208 291.5,207.5C 290.5,207.5 289.5,207.5 288.5,207.5C 288.239,212.111 287.072,216.444 285,220.5C 284.501,224.152 284.335,227.818 284.5,231.5C 282.856,231.286 281.356,231.62 280,232.5C 279.873,231.223 280.373,230.057 281.5,229C 280.833,227.667 280.167,226.333 279.5,225C 282.672,217.65 285.338,210.15 287.5,202.5C 287.547,200.962 286.88,199.962 285.5,199.5C 286.409,192.909 284.743,187.243 280.5,182.5C 273.014,173.692 265.181,173.358 257,181.5C 256.517,182.448 256.351,183.448 256.5,184.5C 255.848,185.449 255.514,186.615 255.5,188C 257.885,193.769 259.552,199.602 260.5,205.5C 261.731,214.403 266.731,219.07 275.5,219.5C 272.375,220.479 269.042,220.813 265.5,220.5C 265.688,218.897 265.188,217.563 264,216.5C 262.301,217.406 260.467,217.739 258.5,217.5C 258.687,219.564 259.187,221.564 260,223.5C 262.195,226.963 265.361,228.296 269.5,227.5C 269.5,229.167 269.5,230.833 269.5,232.5C 266.15,232.335 262.817,232.502 259.5,233C 260.641,233.741 260.641,234.575 259.5,235.5C 257.922,236.298 256.256,236.798 254.5,237C 253.24,239.928 251.073,241.761 248,242.5C 247.667,242.167 247.333,241.833 247,241.5C 246.084,246.332 246.584,250.998 248.5,255.5C 248.167,256.167 247.833,256.833 247.5,257.5C 246.818,256.757 246.151,256.091 245.5,255.5C 242.966,248.834 242.133,241.834 243,234.5C 245.422,229.744 248.256,225.244 251.5,221C 250.566,218.409 249.233,216.076 247.5,214C 246.796,210.872 246.296,207.706 246,204.5C 245.768,205.737 245.268,206.737 244.5,207.5C 244.784,205.585 244.451,203.919 243.5,202.5C 245.049,198.482 246.049,194.482 246.5,190.5C 245.192,189.374 243.858,189.374 242.5,190.5C 243.014,188.302 244.014,186.302 245.5,184.5C 244.833,183.833 244.167,183.167 243.5,182.5C 244.872,180.38 244.205,179.38 241.5,179.5C 243.253,177.777 245.253,176.277 247.5,175C 243.775,174.852 240.108,175.352 236.5,176.5C 229.662,175.314 222.995,173.98 216.5,172.5C 217.167,171.5 217.833,170.5 218.5,169.5C 223.14,168.603 227.806,168.436 232.5,169C 229.833,169.333 227.167,169.667 224.5,170C 227.833,170.667 231.167,170.667 234.5,170C 235.939,169.009 236.939,167.676 237.5,166C 241.779,165.74 245.779,164.573 249.5,162.5C 247.766,160.766 245.766,159.432 243.5,158.5C 246.428,157.516 249.428,157.183 252.5,157.5C 258.75,156.108 264.75,154.108 270.5,151.5 Z"/></g>
<g><path style="opacity:1" fill="#693d1d" d="M 283.5,210.5 C 282.232,214.767 279.565,217.767 275.5,219.5C 266.731,219.07 261.731,214.403 260.5,205.5C 258.602,197.616 261.269,192.116 268.5,189C 275.642,188.452 280.476,191.618 283,198.5C 283.499,202.486 283.666,206.486 283.5,210.5 Z"/></g>
<g><path style="opacity:1" fill="#b5743f" d="M 280.5,182.5 C 284.743,187.243 286.409,192.909 285.5,199.5C 284.897,203.273 284.23,206.939 283.5,210.5C 283.666,206.486 283.499,202.486 283,198.5C 280.476,191.618 275.642,188.452 268.5,189C 261.269,192.116 258.602,197.616 260.5,205.5C 259.552,199.602 257.885,193.769 255.5,188C 255.514,186.615 255.848,185.449 256.5,184.5C 256.212,190.442 257.045,190.775 259,185.5C 260.171,184.107 261.671,183.273 263.5,183C 268.905,181.978 274.071,182.478 279,184.5C 280.03,184.164 280.53,183.497 280.5,182.5 Z"/></g>
<g><path style="opacity:1" fill="#5e2a07" d="M 280.5,182.5 C 280.53,183.497 280.03,184.164 279,184.5C 274.071,182.478 268.905,181.978 263.5,183C 261.671,183.273 260.171,184.107 259,185.5C 257.045,190.775 256.212,190.442 256.5,184.5C 256.351,183.448 256.517,182.448 257,181.5C 265.181,173.358 273.014,173.692 280.5,182.5 Z"/></g>
<g><path style="opacity:1" fill="#593014" d="M 368.5,190.5 C 371.056,191.543 373.223,193.21 375,195.5C 380.115,201.284 384.448,207.618 388,214.5C 388.813,216.436 389.313,218.436 389.5,220.5C 389.167,220.5 388.833,220.5 388.5,220.5C 386.957,215.747 384.624,211.414 381.5,207.5C 381.262,205.596 380.262,204.262 378.5,203.5C 375.402,200.493 371.736,198.826 367.5,198.5C 369.924,198.808 372.257,198.474 374.5,197.5C 372.477,195.147 370.477,192.814 368.5,190.5 Z"/></g>
<g><path style="opacity:0.212" fill="#7c5a3d" d="M 115.5,199.5 C 115.08,204.529 113.746,209.195 111.5,213.5C 111.461,212.417 111.127,211.417 110.5,210.5C 112.322,206.824 113.989,203.157 115.5,199.5 Z"/></g>
<g><path style="opacity:1" fill="#e7ded3" d="M 267.5,190.5 C 273.892,190.073 278.392,192.739 281,198.5C 282.091,204.097 281.424,209.43 279,214.5C 275.888,217.723 272.388,218.223 268.5,216C 260.951,207.707 260.617,199.207 267.5,190.5 Z"/></g>
<g><path style="opacity:1" fill="#66442b" d="M 270.5,196.5 C 277.261,197.602 280.261,201.602 279.5,208.5C 278.5,208.5 277.5,208.5 276.5,208.5C 276.5,210.167 276.5,211.833 276.5,213.5C 270.116,213.497 266.783,210.164 266.5,203.5C 268.167,203.5 269.833,203.5 271.5,203.5C 271.552,201.097 271.219,198.764 270.5,196.5 Z"/></g>
<g><path style="opacity:1" fill="#6a5545" d="M 344.5,210.5 C 343.545,212.746 342.878,215.079 342.5,217.5C 337.331,222.779 332.164,222.779 327,217.5C 325.787,215.075 324.621,212.741 323.5,210.5C 323.5,210.167 323.5,209.833 323.5,209.5C 323.334,205.486 323.501,201.486 324,197.5C 325.503,194.155 328.003,192.155 331.5,191.5C 340.838,194.204 345.171,200.537 344.5,210.5 Z"/></g>
<g><path style="opacity:1" fill="#e6ddd1" d="M 328.5,194.5 C 335.742,193.372 340.242,196.372 342,203.5C 343.358,208.993 342.191,213.827 338.5,218C 332.049,220.178 327.882,218.011 326,211.5C 324.73,205.392 325.564,199.725 328.5,194.5 Z"/></g>
<g><path style="opacity:1" fill="#694631" d="M 329.5,199.5 C 331.167,199.5 332.833,199.5 334.5,199.5C 333.986,201.512 333.82,203.512 334,205.5C 335.356,206.38 336.856,206.714 338.5,206.5C 339.69,213.181 337.023,216.181 330.5,215.5C 330.5,214.167 330.5,212.833 330.5,211.5C 329.5,211.5 328.5,211.5 327.5,211.5C 327.081,207.227 327.748,203.227 329.5,199.5 Z"/></g>
<g><path style="opacity:1" fill="#efb98a" d="M 381.5,207.5 C 384.624,211.414 386.957,215.747 388.5,220.5C 388.844,224.053 389.511,227.553 390.5,231C 389.922,232.811 389.422,234.645 389,236.5C 386.87,230.686 384.704,224.852 382.5,219C 381.042,217.248 379.709,215.415 378.5,213.5C 378.846,212.304 379.346,212.304 380,213.5C 380.191,211.292 380.691,209.292 381.5,207.5 Z"/></g>
<g><path style="opacity:1" fill="#e79a3f" d="M 413.5,220.5 C 413.275,225.048 413.941,229.382 415.5,233.5C 415.167,234.833 414.833,236.167 414.5,237.5C 410.904,236.921 407.237,236.921 403.5,237.5C 400.145,224.605 395.312,212.272 389,200.5C 384.221,195.953 382.388,190.286 383.5,183.5C 385.857,183.663 388.19,183.497 390.5,183C 392.054,181.108 393.888,179.608 396,178.5C 396.772,178.645 397.439,178.978 398,179.5C 404.856,192.542 410.022,206.208 413.5,220.5 Z"/></g>
<g><path style="opacity:1" fill="#efe7dd" d="M 308.5,187.5 C 308.308,190.601 307.642,193.601 306.5,196.5C 307.654,199.69 309.988,201.356 313.5,201.5C 314.503,205.508 315.503,209.508 316.5,213.5C 317.833,213.5 319.167,213.5 320.5,213.5C 320.5,214.833 320.5,216.167 320.5,217.5C 321.873,217.657 323.207,217.49 324.5,217C 323.577,214.959 323.244,212.792 323.5,210.5C 324.621,212.741 325.787,215.075 327,217.5C 332.164,222.779 337.331,222.779 342.5,217.5C 342.461,218.583 342.127,219.583 341.5,220.5C 343.04,221.532 343.54,222.865 343,224.5C 340.269,227.712 336.769,229.212 332.5,229C 336.152,229.499 339.818,229.665 343.5,229.5C 338.557,232.166 333.557,231.999 328.5,229C 325.418,224.865 322.085,220.865 318.5,217C 314.725,214.697 310.892,212.53 307,210.5C 304.678,205.405 304.012,200.071 305,194.5C 305.615,191.697 306.782,189.364 308.5,187.5 Z"/></g>
<g><path style="opacity:1" fill="#ac6b37" d="M 355.5,213.5 C 354.475,216.974 353.808,220.64 353.5,224.5C 354.5,224.5 355.5,224.5 356.5,224.5C 359.657,230.453 362.157,236.786 364,243.5C 364.59,256.582 362.09,268.915 356.5,280.5C 352.037,285.465 347.37,290.298 342.5,295C 340.527,295.495 338.527,295.662 336.5,295.5C 336.263,294.209 336.596,293.209 337.5,292.5C 337.81,293.738 338.31,293.738 339,292.5C 339.725,290.051 340.725,287.717 342,285.5C 346.654,281.508 349.654,276.508 351,270.5C 351.333,271.833 351.667,273.167 352,274.5C 353.867,272.192 354.867,269.525 355,266.5C 357.413,263.938 359.08,260.938 360,257.5C 363.276,244.408 360.11,233.408 350.5,224.5C 352.947,219.16 354.113,213.493 354,207.5C 355.128,209.345 355.628,211.345 355.5,213.5 Z"/></g>
<g><path style="opacity:1" fill="#d0882f" d="M 417.5,207.5 C 418.66,208.611 419.993,209.611 421.5,210.5C 420.502,215.871 420.835,221.205 422.5,226.5C 423.552,226.351 424.552,226.517 425.5,227C 424.842,240.265 424.175,253.431 423.5,266.5C 423.935,246.553 421.935,226.886 417.5,207.5 Z"/></g>
<g><path style="opacity:0.004" fill="#ffa447" d="M 106.5,227.5 C 107.598,228.601 107.765,229.934 107,231.5C 106.51,230.207 106.343,228.873 106.5,227.5 Z"/></g>
<g><path style="opacity:1" fill="#612a0f" d="M 321.5,232.5 C 321.167,233.167 320.833,233.833 320.5,234.5C 318.786,237.213 316.453,239.213 313.5,240.5C 308.864,241.149 304.198,241.649 299.5,242C 300.056,242.383 300.389,242.883 300.5,243.5C 294.279,241.277 289.613,237.277 286.5,231.5C 285.618,227.091 286.952,223.591 290.5,221C 297.392,219.409 304.392,219.076 311.5,220C 318.077,221.729 321.411,225.895 321.5,232.5 Z"/></g>
<g><path style="opacity:1" fill="#87523c" d="M 297.5,220.5 C 304.639,219.909 311.139,221.576 317,225.5C 317.49,226.793 317.657,228.127 317.5,229.5C 308.515,228.709 299.515,228.043 290.5,227.5C 291.2,223.466 293.533,221.133 297.5,220.5 Z"/></g>
<g><path style="opacity:1" fill="#765127" d="M 117.5,201.5 C 116.073,214.456 115.407,227.456 115.5,240.5C 113.921,227.401 114.588,214.401 117.5,201.5 Z"/></g>
<g><path style="opacity:1" fill="#e4995a" d="M 256.5,333.5 C 251.763,324.594 245.096,317.428 236.5,312C 225.433,301.701 218.1,289.201 214.5,274.5C 213.457,279.053 213.79,283.553 215.5,288C 215.026,289.608 214.359,289.774 213.5,288.5C 206.994,276.152 202.161,263.152 199,249.5C 198.667,253.5 198.333,257.5 198,261.5C 196.748,259.999 195.748,258.332 195,256.5C 193.646,243.149 195.146,230.149 199.5,217.5C 202.21,213.773 204.71,209.773 207,205.5C 207.068,200.273 209.568,196.94 214.5,195.5C 217.779,194.508 221.112,194.341 224.5,195C 226.215,195.777 227.215,197.11 227.5,199C 225.476,206.883 221.309,213.383 215,218.5C 211.432,223.974 209.266,229.974 208.5,236.5C 208.667,237.833 208.833,239.167 209,240.5C 210.233,237.703 211.733,235.037 213.5,232.5C 214.996,241.428 215.83,250.428 216,259.5C 216.697,265.987 218.031,272.32 220,278.5C 223.726,283.228 227.059,288.228 230,293.5C 233.697,295.559 236.697,298.893 239,303.5C 245.643,309.811 251.976,316.478 258,323.5C 259.904,326.923 260.737,330.59 260.5,334.5C 259.041,334.567 257.708,334.234 256.5,333.5 Z"/></g>
<g><path style="opacity:1" fill="#f3bc8b" d="M 213.5,199.5 C 214.376,199.369 215.043,199.702 215.5,200.5C 213.118,203.278 213.118,205.945 215.5,208.5C 210.532,217.397 206.532,226.731 203.5,236.5C 202.686,234.234 202.186,231.9 202,229.5C 201.667,229.833 201.333,230.167 201,230.5C 200.333,228.5 200.333,226.5 201,224.5C 203.715,219.029 206.049,213.362 208,207.5C 209.273,204.403 211.107,201.736 213.5,199.5 Z"/></g>
<g><path style="opacity:1" fill="#fbfaf7" d="M 269.5,253.5 C 270.043,253.44 270.376,253.107 270.5,252.5C 261.577,251.089 258.244,254.756 260.5,263.5C 260.715,265.179 260.048,266.179 258.5,266.5C 254.53,263.407 251.697,259.407 250,254.5C 249.391,240.614 255.891,235.281 269.5,238.5C 273.981,239.648 278.648,239.815 283.5,239C 284.618,237.926 285.618,236.76 286.5,235.5C 289.814,240.806 293.481,245.806 297.5,250.5C 296.122,254.715 293.455,257.881 289.5,260C 282.82,261.17 276.487,260.337 270.5,257.5C 269.571,256.311 269.238,254.978 269.5,253.5 Z"/></g>
<g><path style="opacity:1" fill="#faf9f4" d="M 321.5,232.5 C 322.782,234.866 324.449,237.033 326.5,239C 333.838,239.11 341.172,239.11 348.5,239C 351.295,240.793 353.795,242.96 356,245.5C 357.053,256.728 352.719,265.395 343,271.5C 342.536,272.094 342.369,272.761 342.5,273.5C 340.386,274.907 338.886,276.907 338,279.5C 337.505,277.527 337.338,275.527 337.5,273.5C 338.038,268.043 340.204,263.376 344,259.5C 344.935,265.932 345.768,265.765 346.5,259C 346.251,252.902 343.251,250.402 337.5,251.5C 337.624,252.107 337.957,252.44 338.5,252.5C 338.95,256.224 337.283,258.391 333.5,259C 328.382,259.888 323.382,259.555 318.5,258C 312.453,253.312 312.12,248.478 317.5,243.5C 319.044,240.644 320.044,237.644 320.5,234.5C 320.833,233.833 321.167,233.167 321.5,232.5 Z"/></g>
<g><path style="opacity:1" fill="#da974c" d="M 413.5,220.5 C 415.786,225.444 416.953,230.777 417,236.5C 417.826,248.008 417.659,259.341 416.5,270.5C 416.799,268.396 416.466,266.396 415.5,264.5C 413.146,265.06 410.813,265.727 408.5,266.5C 408.709,267.086 409.043,267.586 409.5,268C 406.115,268.098 403.781,269.598 402.5,272.5C 404.74,260.894 405.073,249.227 403.5,237.5C 407.237,236.921 410.904,236.921 414.5,237.5C 414.833,236.167 415.167,234.833 415.5,233.5C 413.941,229.382 413.275,225.048 413.5,220.5 Z"/></g>
<g><path style="opacity:1" fill="#d9c9be" d="M 286.5,231.5 C 289.613,237.277 294.279,241.277 300.5,243.5C 302.483,248.28 302.983,253.28 302,258.5C 300.125,261.187 297.625,263.021 294.5,264C 284.795,265.942 275.962,264.108 268,258.5C 267.123,256.326 267.623,254.659 269.5,253.5C 269.238,254.978 269.571,256.311 270.5,257.5C 276.487,260.337 282.82,261.17 289.5,260C 293.455,257.881 296.122,254.715 297.5,250.5C 293.481,245.806 289.814,240.806 286.5,235.5C 285.618,236.76 284.618,237.926 283.5,239C 278.648,239.815 273.981,239.648 269.5,238.5C 273.846,238.666 278.179,238.499 282.5,238C 284.248,235.987 285.582,233.82 286.5,231.5 Z"/></g>
<g><path style="opacity:1" fill="#4e2c15" d="M 189.5,209.5 C 177.748,239.056 180.581,267.056 198,293.5C 204.114,302.614 210.614,311.448 217.5,320C 219.952,320.29 222.285,320.956 224.5,322C 232.873,327.706 239.873,334.706 245.5,343C 245.43,343.765 245.097,344.265 244.5,344.5C 244.03,343.307 243.03,342.64 241.5,342.5C 236.132,341.293 230.799,339.96 225.5,338.5C 220.677,333.508 216.01,328.342 211.5,323C 205.641,317.707 199.475,313.541 193,310.5C 187.508,304.84 183.008,298.507 179.5,291.5C 180.043,291.44 180.376,291.107 180.5,290.5C 178.098,284.694 174.932,279.361 171,274.5C 167.394,266.532 166.061,258.198 167,249.5C 169.695,244.538 171.195,239.205 171.5,233.5C 173.287,225.925 176.621,219.259 181.5,213.5C 184.029,211.735 186.362,209.735 188.5,207.5C 189.298,207.957 189.631,208.624 189.5,209.5 Z"/></g>
<g><path style="opacity:1" fill="#e39a5b" d="M 378.5,203.5 C 380.262,204.262 381.262,205.596 381.5,207.5C 380.691,209.292 380.191,211.292 380,213.5C 379.346,212.304 378.846,212.304 378.5,213.5C 379.709,215.415 381.042,217.248 382.5,219C 384.704,224.852 386.87,230.686 389,236.5C 389.422,234.645 389.922,232.811 390.5,231C 389.511,227.553 388.844,224.053 388.5,220.5C 388.833,220.5 389.167,220.5 389.5,220.5C 389.402,222.553 390.069,224.22 391.5,225.5C 392.688,230.223 394.188,234.889 396,239.5C 397.029,245.123 397.529,250.79 397.5,256.5C 396.59,258.019 395.757,259.685 395,261.5C 394.667,257.167 394.333,252.833 394,248.5C 392.744,260.521 390.077,272.188 386,283.5C 385.667,280.167 385.333,276.833 385,273.5C 383.746,277.77 382.746,282.104 382,286.5C 373.531,299.796 365.364,313.129 357.5,326.5C 356.252,325.666 355.585,324.333 355.5,322.5C 356.08,318.667 357.247,315 359,311.5C 366.447,300.934 373.113,289.934 379,278.5C 382.589,265.535 383.423,252.368 381.5,239C 382.316,234.704 383.483,234.871 385,239.5C 384.928,226.767 379.928,216.434 370,208.5C 368.872,206.655 368.372,204.655 368.5,202.5C 371.807,203.051 375.14,203.384 378.5,203.5 Z"/></g>
<g><path style="opacity:1" fill="#4f280e" d="M 391.5,225.5 C 397.808,235.055 399.808,245.389 397.5,256.5C 397.529,250.79 397.029,245.123 396,239.5C 394.188,234.889 392.688,230.223 391.5,225.5 Z"/></g>
<g><path style="opacity:1" fill="#f5bd8d" d="M 231.5,237.5 C 230.878,245.367 230.545,253.367 230.5,261.5C 229.622,257.411 228.455,253.411 227,249.5C 226.709,244.811 226.709,240.144 227,235.5C 225.844,236.993 225.01,236.826 224.5,235C 227.207,227.556 231.041,220.722 236,214.5C 236.608,212.846 237.108,211.179 237.5,209.5C 237.833,208.833 238.167,208.167 238.5,207.5C 238.833,207.5 239.167,207.5 239.5,207.5C 240.496,207.586 241.329,207.252 242,206.5C 242.667,208.5 242.667,210.5 242,212.5C 238.937,221.183 235.437,229.516 231.5,237.5 Z"/></g>
<g><path style="opacity:0.425" fill="#795e41" d="M 111.5,214.5 C 108.94,232.065 107.94,249.732 108.5,267.5C 108.167,267.5 107.833,267.5 107.5,267.5C 106.584,253.119 106.584,238.786 107.5,224.5C 108.96,221.098 110.293,217.764 111.5,214.5 Z"/></g>
<g><path style="opacity:1" fill="#69300c" d="M 355.5,213.5 C 356.488,216.076 357.488,218.743 358.5,221.5C 358.343,222.873 358.51,224.207 359,225.5C 363.431,232.856 366.598,240.69 368.5,249C 366.265,260.566 362.932,273.066 358.5,286.5C 358.741,284.102 358.074,282.102 356.5,280.5C 362.09,268.915 364.59,256.582 364,243.5C 362.157,236.786 359.657,230.453 356.5,224.5C 355.5,224.5 354.5,224.5 353.5,224.5C 353.808,220.64 354.475,216.974 355.5,213.5 Z"/></g>
<g><path style="opacity:1" fill="#503515" d="M 115.5,246.5 C 116.574,254.986 117.241,263.653 117.5,272.5C 115.863,264.056 115.197,255.389 115.5,246.5 Z"/></g>
<g><path style="opacity:1" fill="#642e0a" d="M 257.5,288.5 C 256.417,288.461 255.417,288.127 254.5,287.5C 254.167,288.333 253.833,289.167 253.5,290C 255.675,293.854 257.008,298.021 257.5,302.5C 249.378,289.591 242.878,275.924 238,261.5C 237.769,257.416 237.102,253.416 236,249.5C 234.956,251.715 234.29,254.048 234,256.5C 233.178,249.366 233.845,242.366 236,235.5C 238.985,231.198 241.151,226.531 242.5,221.5C 243.963,218.797 244.796,215.797 245,212.5C 245.422,215.76 246.922,218.426 249.5,220.5C 244.924,223.246 242.091,227.246 241,232.5C 239.15,253.474 244.65,272.14 257.5,288.5 Z"/></g>
<g><path style="opacity:1" fill="#e0a573" d="M 237.5,209.5 C 237.108,211.179 236.608,212.846 236,214.5C 231.041,220.722 227.207,227.556 224.5,235C 225.01,236.826 225.844,236.993 227,235.5C 226.709,240.144 226.709,244.811 227,249.5C 228.455,253.411 229.622,257.411 230.5,261.5C 230.545,253.367 230.878,245.367 231.5,237.5C 231.917,246.167 232.417,254.834 233,263.5C 235.64,269.401 237.973,275.401 240,281.5C 242.3,285.268 244.467,289.102 246.5,293C 246.164,294.03 245.497,294.53 244.5,294.5C 232.375,279.066 225.875,261.399 225,241.5C 224.333,242.167 223.667,242.833 223,243.5C 222.333,239.833 222.333,236.167 223,232.5C 225.658,223.366 230.492,215.699 237.5,209.5 Z"/></g>
<g><path style="opacity:1" fill="#d3c3b8" d="M 320.5,234.5 C 320.044,237.644 319.044,240.644 317.5,243.5C 312.12,248.478 312.453,253.312 318.5,258C 323.382,259.555 328.382,259.888 333.5,259C 337.283,258.391 338.95,256.224 338.5,252.5C 340.926,253.353 341.76,255.019 341,257.5C 333.688,264.045 325.188,266.212 315.5,264C 308.806,259.622 306.639,253.455 309,245.5C 310.193,243.503 311.693,241.836 313.5,240.5C 316.453,239.213 318.786,237.213 320.5,234.5 Z"/></g>
<g><path style="opacity:1" fill="#ea9f3b" d="M 406.5,253.5 C 409.833,253.5 413.167,253.5 416.5,253.5C 416.5,256.833 416.5,260.167 416.5,263.5C 412.649,262.971 409.149,263.638 406,265.5C 406.017,261.525 406.184,257.525 406.5,253.5 Z"/></g>
<g><path style="opacity:0.744" fill="#1f2329" d="M 439.5,221.5 C 444.796,250.305 444.796,278.971 439.5,307.5C 438.876,307.083 438.543,306.416 438.5,305.5C 439.526,301.204 440.359,296.871 441,292.5C 441.922,268.794 441.422,245.127 439.5,221.5 Z"/></g>
<g><path style="opacity:1" fill="#56290d" d="M 313.5,240.5 C 311.693,241.836 310.193,243.503 309,245.5C 306.639,253.455 308.806,259.622 315.5,264C 325.188,266.212 333.688,264.045 341,257.5C 341.76,255.019 340.926,253.353 338.5,252.5C 337.957,252.44 337.624,252.107 337.5,251.5C 343.251,250.402 346.251,252.902 346.5,259C 345.768,265.765 344.935,265.932 344,259.5C 340.204,263.376 338.038,268.043 337.5,273.5C 336.349,278.465 334.849,283.465 333,288.5C 327.784,293.012 326.118,298.678 328,305.5C 331.357,299.448 334.19,293.115 336.5,286.5C 337.461,288.265 337.795,290.265 337.5,292.5C 336.596,293.209 336.263,294.209 336.5,295.5C 338.527,295.662 340.527,295.495 342.5,295C 347.37,290.298 352.037,285.465 356.5,280.5C 358.074,282.102 358.741,284.102 358.5,286.5C 352.119,296.348 349.286,307.348 350,319.5C 350.149,323.133 350.982,326.466 352.5,329.5C 355.235,330.821 356.902,329.821 357.5,326.5C 365.364,313.129 373.531,299.796 382,286.5C 382.746,282.104 383.746,277.77 385,273.5C 385.333,276.833 385.667,280.167 386,283.5C 390.077,272.188 392.744,260.521 394,248.5C 394.333,252.833 394.667,257.167 395,261.5C 395.757,259.685 396.59,258.019 397.5,256.5C 397.326,259.874 396.826,263.207 396,266.5C 391.809,278.545 386.809,290.212 381,301.5C 379.013,302.218 377.179,303.218 375.5,304.5C 372.854,307.98 370.021,311.314 367,314.5C 363.676,320.85 360.176,327.016 356.5,333C 351.929,333.439 349.429,331.272 349,326.5C 348.333,319.167 348.333,311.833 349,304.5C 350.271,300.131 351.271,295.798 352,291.5C 347.509,295.452 342.343,298.285 336.5,300C 333.683,304.643 330.349,308.81 326.5,312.5C 326.667,300.495 326.5,288.495 326,276.5C 325.727,274.671 324.893,273.171 323.5,272C 319.661,271.164 315.828,270.331 312,269.5C 309.657,269.682 307.824,270.682 306.5,272.5C 299.93,269.636 293.596,270.303 287.5,274.5C 285.519,284.045 286.519,293.045 290.5,301.5C 290.796,303.403 291.463,305.07 292.5,306.5C 292.5,307.833 292.5,309.167 292.5,310.5C 293.509,315.358 295.009,320.025 297,324.5C 301.536,329.152 307.036,330.652 313.5,329C 317.689,325.309 321.356,321.143 324.5,316.5C 324.833,316.5 325.167,316.5 325.5,316.5C 324.241,322.929 320.574,327.429 314.5,330C 309.833,330.667 305.167,330.667 300.5,330C 296.279,326.395 293.446,321.895 292,316.5C 287.167,313 283,308.833 279.5,304C 274.561,303.187 269.895,301.687 265.5,299.5C 264.175,296.671 262.175,296.004 259.5,297.5C 261.984,300.801 263.651,304.467 264.5,308.5C 262.466,307.452 261.133,305.786 260.5,303.5C 259.675,302.614 258.675,302.281 257.5,302.5C 257.008,298.021 255.675,293.854 253.5,290C 253.833,289.167 254.167,288.333 254.5,287.5C 255.417,288.127 256.417,288.461 257.5,288.5C 260.319,290.419 262.986,292.585 265.5,295C 269.228,297.027 273.228,298.193 277.5,298.5C 277.784,296.585 277.451,294.919 276.5,293.5C 275.709,291.309 275.709,289.309 276.5,287.5C 279.729,294.961 283.729,301.961 288.5,308.5C 289.632,301.067 287.132,295.067 281,290.5C 277.265,282.617 273.931,274.617 271,266.5C 268.88,263.864 266.38,261.864 263.5,260.5C 263.663,262.857 263.497,265.19 263,267.5C 262.066,266.142 261.232,264.808 260.5,263.5C 258.244,254.756 261.577,251.089 270.5,252.5C 270.376,253.107 270.043,253.44 269.5,253.5C 267.623,254.659 267.123,256.326 268,258.5C 275.962,264.108 284.795,265.942 294.5,264C 297.625,263.021 300.125,261.187 302,258.5C 302.983,253.28 302.483,248.28 300.5,243.5C 300.389,242.883 300.056,242.383 299.5,242C 304.198,241.649 308.864,241.149 313.5,240.5 Z"/></g>
<g><path style="opacity:1" fill="#e8ac79" d="M 352.5,201.5 C 354.087,204.428 356.087,207.094 358.5,209.5C 367.384,218.935 373.384,229.935 376.5,242.5C 376.333,243.5 376.167,244.5 376,245.5C 375.333,244.167 374.667,242.833 374,241.5C 375.407,253.111 374.073,264.445 370,275.5C 368.524,281.119 366.024,286.119 362.5,290.5C 361.876,290.083 361.543,289.416 361.5,288.5C 368.429,272.452 370.595,255.785 368,238.5C 365.551,233.071 363.051,227.737 360.5,222.5C 360.043,221.702 359.376,221.369 358.5,221.5C 357.488,218.743 356.488,216.076 355.5,213.5C 355.628,211.345 355.128,209.345 354,207.5C 354.113,213.493 352.947,219.16 350.5,224.5C 350.167,224.5 349.833,224.5 349.5,224.5C 352.195,217.118 353.195,209.451 352.5,201.5 Z"/></g>
<g><path style="opacity:1" fill="#d8965e" d="M 358.5,221.5 C 359.376,221.369 360.043,221.702 360.5,222.5C 363.051,227.737 365.551,233.071 368,238.5C 370.595,255.785 368.429,272.452 361.5,288.5C 361.543,289.416 361.876,290.083 362.5,290.5C 362.005,292.482 361.505,294.482 361,296.5C 357.705,302.322 354.705,308.322 352,314.5C 351.333,312.833 351.333,311.167 352,309.5C 354.183,301.812 356.349,294.145 358.5,286.5C 362.932,273.066 366.265,260.566 368.5,249C 366.598,240.69 363.431,232.856 359,225.5C 358.51,224.207 358.343,222.873 358.5,221.5 Z"/></g>
<g><path style="opacity:0.004" fill="#ffde4a" d="M 107.5,267.5 C 107.66,269.199 107.494,270.866 107,272.5C 106.22,270.613 106.387,268.946 107.5,267.5 Z"/></g>
<g><path style="opacity:1" fill="#bb7e31" d="M 126.5,263.5 C 128.594,268.214 130.094,273.214 131,278.5C 132.169,285.512 133.335,292.512 134.5,299.5C 130.701,287.849 128.034,275.849 126.5,263.5 Z"/></g>
<g><path style="opacity:1" fill="#b17833" d="M 149.5,258.5 C 150.705,266.059 152.038,273.725 153.5,281.5C 152.001,280.322 151.001,278.655 150.5,276.5C 149.504,270.537 149.171,264.537 149.5,258.5 Z"/></g>
<g><path style="opacity:1" fill="#e09f52" d="M 115.5,197.5 C 117.176,198.183 117.843,199.517 117.5,201.5C 114.588,214.401 113.921,227.401 115.5,240.5C 115.5,242.5 115.5,244.5 115.5,246.5C 115.197,255.389 115.863,264.056 117.5,272.5C 118.758,282.399 120.758,292.066 123.5,301.5C 124.252,308.512 125.919,315.179 128.5,321.5C 128.167,322.5 127.833,323.5 127.5,324.5C 126.416,323.335 125.583,322.002 125,320.5C 124.329,319.748 123.496,319.414 122.5,319.5C 117.452,305.512 113.285,291.179 110,276.5C 109.667,275.833 109.333,275.167 109,274.5C 108.722,275.416 108.222,276.082 107.5,276.5C 108.159,273.545 108.492,270.545 108.5,267.5C 107.94,249.732 108.94,232.065 111.5,214.5C 111.5,214.167 111.5,213.833 111.5,213.5C 113.746,209.195 115.08,204.529 115.5,199.5C 115.5,198.833 115.5,198.167 115.5,197.5 Z"/></g>
<g><path style="opacity:1" fill="#e9dfd1" d="M 276.5,287.5 C 273.8,281.937 270.467,276.77 266.5,272C 262.879,271.544 260.212,269.711 258.5,266.5C 260.048,266.179 260.715,265.179 260.5,263.5C 261.232,264.808 262.066,266.142 263,267.5C 263.497,265.19 263.663,262.857 263.5,260.5C 266.38,261.864 268.88,263.864 271,266.5C 273.931,274.617 277.265,282.617 281,290.5C 287.132,295.067 289.632,301.067 288.5,308.5C 283.729,301.961 279.729,294.961 276.5,287.5 Z"/></g>
<g><path style="opacity:1" fill="#ae6c36" d="M 245.5,255.5 C 246.963,259.105 248.463,262.771 250,266.5C 251,267.167 252,267.833 253,268.5C 253.806,271.446 255.139,274.112 257,276.5C 257.333,275.167 257.667,273.833 258,272.5C 259.711,274.956 261.044,277.623 262,280.5C 268.099,284.598 272.766,289.931 276,296.5C 276.483,295.552 276.649,294.552 276.5,293.5C 277.451,294.919 277.784,296.585 277.5,298.5C 273.228,298.193 269.228,297.027 265.5,295C 262.986,292.585 260.319,290.419 257.5,288.5C 244.65,272.14 239.15,253.474 241,232.5C 242.091,227.246 244.924,223.246 249.5,220.5C 246.922,218.426 245.422,215.76 245,212.5C 244.796,215.797 243.963,218.797 242.5,221.5C 243.074,216.817 243.74,212.15 244.5,207.5C 245.268,206.737 245.768,205.737 246,204.5C 246.296,207.706 246.796,210.872 247.5,214C 249.233,216.076 250.566,218.409 251.5,221C 248.256,225.244 245.422,229.744 243,234.5C 242.133,241.834 242.966,248.834 245.5,255.5 Z"/></g>
<g><path style="opacity:1" fill="#872d1d" d="M 326.5,312.5 C 325.566,313.568 325.232,314.901 325.5,316.5C 325.167,316.5 324.833,316.5 324.5,316.5C 325.807,304.503 325.807,292.503 324.5,280.5C 319.167,280.5 313.833,280.5 308.5,280.5C 308.785,282.288 308.452,283.955 307.5,285.5C 306.086,284.376 304.586,283.376 303,282.5C 298.782,282.264 294.449,282.597 290,283.5C 289.425,289.522 289.591,295.522 290.5,301.5C 286.519,293.045 285.519,284.045 287.5,274.5C 293.596,270.303 299.93,269.636 306.5,272.5C 307.824,270.682 309.657,269.682 312,269.5C 315.828,270.331 319.661,271.164 323.5,272C 324.893,273.171 325.727,274.671 326,276.5C 326.5,288.495 326.667,300.495 326.5,312.5 Z"/></g>
<g><path style="opacity:1" fill="#ab6a36" d="M 243.5,202.5 C 242.197,204.142 240.864,205.809 239.5,207.5C 239.167,207.5 238.833,207.5 238.5,207.5C 238.103,206.475 237.437,206.308 236.5,207C 221.442,219.997 215.275,236.497 218,256.5C 219.733,263.316 222.067,269.983 225,276.5C 225.333,273.167 225.667,269.833 226,266.5C 233.286,285.075 243.619,301.742 257,316.5C 258.629,320.746 260.629,324.746 263,328.5C 264.079,331.063 264.579,333.729 264.5,336.5C 263.796,338.344 262.463,338.844 260.5,338C 258.365,337.124 257.031,335.624 256.5,333.5C 257.708,334.234 259.041,334.567 260.5,334.5C 260.737,330.59 259.904,326.923 258,323.5C 251.976,316.478 245.643,309.811 239,303.5C 236.697,298.893 233.697,295.559 230,293.5C 227.059,288.228 223.726,283.228 220,278.5C 218.031,272.32 216.697,265.987 216,259.5C 215.83,250.428 214.996,241.428 213.5,232.5C 211.733,235.037 210.233,237.703 209,240.5C 208.833,239.167 208.667,237.833 208.5,236.5C 209.266,229.974 211.432,223.974 215,218.5C 221.309,213.383 225.476,206.883 227.5,199C 227.215,197.11 226.215,195.777 224.5,195C 221.112,194.341 217.779,194.508 214.5,195.5C 216.279,194.33 217.279,192.664 217.5,190.5C 223.072,190.637 228.572,191.304 234,192.5C 237.073,192.636 239.906,191.97 242.5,190.5C 243.858,189.374 245.192,189.374 246.5,190.5C 246.049,194.482 245.049,198.482 243.5,202.5 Z"/></g>
<g><path style="opacity:0.251" fill="#3f2d29" d="M 171.5,233.5 C 171.195,239.205 169.695,244.538 167,249.5C 166.061,258.198 167.394,266.532 171,274.5C 174.932,279.361 178.098,284.694 180.5,290.5C 180.376,291.107 180.043,291.44 179.5,291.5C 175.799,286.598 172.632,281.265 170,275.5C 162.889,261.19 163.389,247.19 171.5,233.5 Z"/></g>
<g><path style="opacity:1" fill="#af6c37" d="M 367.5,198.5 C 371.736,198.826 375.402,200.493 378.5,203.5C 375.14,203.384 371.807,203.051 368.5,202.5C 368.372,204.655 368.872,206.655 370,208.5C 379.928,216.434 384.928,226.767 385,239.5C 383.483,234.871 382.316,234.704 381.5,239C 383.423,252.368 382.589,265.535 379,278.5C 373.113,289.934 366.447,300.934 359,311.5C 357.247,315 356.08,318.667 355.5,322.5C 355.585,324.333 356.252,325.666 357.5,326.5C 356.902,329.821 355.235,330.821 352.5,329.5C 352.32,323.234 353.487,317.234 356,311.5C 360.034,304.093 364.034,296.759 368,289.5C 371.526,282.251 373.859,274.584 375,266.5C 375.333,265.833 375.667,265.167 376,264.5C 376.333,267.167 376.667,269.833 377,272.5C 385.239,247.212 379.239,225.879 359,208.5C 358.601,208.728 358.435,209.062 358.5,209.5C 356.087,207.094 354.087,204.428 352.5,201.5C 352.483,199.435 352.15,197.435 351.5,195.5C 351.56,194.957 351.893,194.624 352.5,194.5C 356.797,198.11 361.797,199.443 367.5,198.5 Z"/></g>
<g><path style="opacity:1" fill="#632c09" d="M 238.5,207.5 C 238.167,208.167 237.833,208.833 237.5,209.5C 230.492,215.699 225.658,223.366 223,232.5C 222.333,236.167 222.333,239.833 223,243.5C 223.667,242.833 224.333,242.167 225,241.5C 225.875,261.399 232.375,279.066 244.5,294.5C 251.394,302.61 257.56,311.277 263,320.5C 262.099,314.234 260.266,308.234 257.5,302.5C 258.675,302.281 259.675,302.614 260.5,303.5C 261.133,305.786 262.466,307.452 264.5,308.5C 265.166,316.158 265.833,323.825 266.5,331.5C 266.444,333.64 265.777,335.306 264.5,336.5C 264.579,333.729 264.079,331.063 263,328.5C 260.629,324.746 258.629,320.746 257,316.5C 243.619,301.742 233.286,285.075 226,266.5C 225.667,269.833 225.333,273.167 225,276.5C 222.067,269.983 219.733,263.316 218,256.5C 215.275,236.497 221.442,219.997 236.5,207C 237.437,206.308 238.103,206.475 238.5,207.5 Z"/></g>
<g><path style="opacity:1" fill="#dd975d" d="M 243.5,202.5 C 244.451,203.919 244.784,205.585 244.5,207.5C 243.74,212.15 243.074,216.817 242.5,221.5C 241.151,226.531 238.985,231.198 236,235.5C 233.845,242.366 233.178,249.366 234,256.5C 234.29,254.048 234.956,251.715 236,249.5C 237.102,253.416 237.769,257.416 238,261.5C 242.878,275.924 249.378,289.591 257.5,302.5C 260.266,308.234 262.099,314.234 263,320.5C 257.56,311.277 251.394,302.61 244.5,294.5C 245.497,294.53 246.164,294.03 246.5,293C 244.467,289.102 242.3,285.268 240,281.5C 237.973,275.401 235.64,269.401 233,263.5C 232.417,254.834 231.917,246.167 231.5,237.5C 235.437,229.516 238.937,221.183 242,212.5C 242.667,210.5 242.667,208.5 242,206.5C 241.329,207.252 240.496,207.586 239.5,207.5C 240.864,205.809 242.197,204.142 243.5,202.5 Z"/></g>
<g><path style="opacity:1" fill="#e59c3e" d="M 416.5,270.5 C 414.83,287.18 410.664,303.18 404,318.5C 397.564,329.721 390.397,340.388 382.5,350.5C 381.833,347.167 381.167,343.833 380.5,340.5C 377.815,337.81 375.482,334.81 373.5,331.5C 372.311,330.571 370.978,330.238 369.5,330.5C 369.635,326.562 371.135,323.228 374,320.5C 378.054,315.112 382.721,310.446 388,306.5C 393.681,295.478 398.514,284.145 402.5,272.5C 403.781,269.598 406.115,268.098 409.5,268C 409.043,267.586 408.709,267.086 408.5,266.5C 410.813,265.727 413.146,265.06 415.5,264.5C 416.466,266.396 416.799,268.396 416.5,270.5 Z"/></g>
<g><path style="opacity:0.42" fill="#8b6842" d="M 122.5,319.5 C 120.981,316.979 119.314,314.479 117.5,312C 117.957,311.586 118.291,311.086 118.5,310.5C 116.653,307.798 115.487,304.798 115,301.5C 114.346,302.696 113.846,302.696 113.5,301.5C 113.833,300.833 114.167,300.167 114.5,299.5C 113.683,296.336 112.35,293.503 110.5,291C 111.059,290.275 111.392,289.442 111.5,288.5C 110.535,284.284 109.201,280.284 107.5,276.5C 108.222,276.082 108.722,275.416 109,274.5C 109.333,275.167 109.667,275.833 110,276.5C 113.285,291.179 117.452,305.512 122.5,319.5 Z"/></g>
<g><path style="opacity:1" fill="#a6332d" d="M 324.5,316.5 C 321.356,321.143 317.689,325.309 313.5,329C 307.036,330.652 301.536,329.152 297,324.5C 295.009,320.025 293.509,315.358 292.5,310.5C 293.167,310.5 293.833,310.5 294.5,310.5C 296.328,315.619 299.328,320.119 303.5,324C 312.167,326.003 317.834,322.837 320.5,314.5C 322.528,311.439 323.528,307.939 323.5,304C 323.333,301.5 323.167,299 323,296.5C 321.294,295.692 320.461,294.359 320.5,292.5C 310.628,290.658 300.961,291.324 291.5,294.5C 291.505,298.534 291.838,302.534 292.5,306.5C 291.463,305.07 290.796,303.403 290.5,301.5C 289.591,295.522 289.425,289.522 290,283.5C 294.449,282.597 298.782,282.264 303,282.5C 304.586,283.376 306.086,284.376 307.5,285.5C 308.452,283.955 308.785,282.288 308.5,280.5C 313.833,280.5 319.167,280.5 324.5,280.5C 325.807,292.503 325.807,304.503 324.5,316.5 Z"/></g>
<g><path style="opacity:1" fill="#e3d6c7" d="M 337.5,273.5 C 337.338,275.527 337.505,277.527 338,279.5C 338.886,276.907 340.386,274.907 342.5,273.5C 340.878,278.042 338.878,282.376 336.5,286.5C 334.19,293.115 331.357,299.448 328,305.5C 326.118,298.678 327.784,293.012 333,288.5C 334.849,283.465 336.349,278.465 337.5,273.5 Z"/></g>
<g><path style="opacity:1" fill="#67300d" d="M 352.5,329.5 C 350.982,326.466 350.149,323.133 350,319.5C 349.286,307.348 352.119,296.348 358.5,286.5C 356.349,294.145 354.183,301.812 352,309.5C 351.333,311.167 351.333,312.833 352,314.5C 354.705,308.322 357.705,302.322 361,296.5C 361.505,294.482 362.005,292.482 362.5,290.5C 366.024,286.119 368.524,281.119 370,275.5C 374.073,264.445 375.407,253.111 374,241.5C 374.667,242.833 375.333,244.167 376,245.5C 376.167,244.5 376.333,243.5 376.5,242.5C 373.384,229.935 367.384,218.935 358.5,209.5C 358.435,209.062 358.601,208.728 359,208.5C 379.239,225.879 385.239,247.212 377,272.5C 376.667,269.833 376.333,267.167 376,264.5C 375.667,265.167 375.333,265.833 375,266.5C 373.859,274.584 371.526,282.251 368,289.5C 364.034,296.759 360.034,304.093 356,311.5C 353.487,317.234 352.32,323.234 352.5,329.5 Z"/></g>
<g><path style="opacity:1" fill="#c48331" d="M 153.5,282.5 C 156.234,291.623 159.568,300.623 163.5,309.5C 162.288,308.77 161.288,307.77 160.5,306.5C 159.709,302.281 157.875,298.614 155,295.5C 153.925,291.23 153.425,286.897 153.5,282.5 Z"/></g>
<g><path style="opacity:1" fill="#582b0d" d="M 199.5,217.5 C 195.146,230.149 193.646,243.149 195,256.5C 195.748,258.332 196.748,259.999 198,261.5C 198.333,257.5 198.667,253.5 199,249.5C 202.161,263.152 206.994,276.152 213.5,288.5C 214.359,289.774 215.026,289.608 215.5,288C 213.79,283.553 213.457,279.053 214.5,274.5C 218.1,289.201 225.433,301.701 236.5,312C 245.096,317.428 251.763,324.594 256.5,333.5C 257.031,335.624 258.365,337.124 260.5,338C 262.463,338.844 263.796,338.344 264.5,336.5C 265.777,335.306 266.444,333.64 266.5,331.5C 265.833,323.825 265.166,316.158 264.5,308.5C 267.908,316.744 269.075,325.411 268,334.5C 267.382,339.803 264.548,341.97 259.5,341C 254.749,334.855 249.749,328.855 244.5,323C 239.187,319.35 234.187,315.35 229.5,311C 228.216,310.316 227.049,310.483 226,311.5C 209.675,294.18 198.009,274.18 191,251.5C 190.857,240.217 193.023,229.384 197.5,219C 197.836,217.97 198.503,217.47 199.5,217.5 Z"/></g>
<g><path style="opacity:1" fill="#c9383d" d="M 320.5,314.5 C 321.008,308.713 319.342,308.213 315.5,313C 310.833,313.667 306.167,313.667 301.5,313C 299.401,311.043 297.401,308.877 295.5,306.5C 294.571,307.689 294.238,309.022 294.5,310.5C 293.833,310.5 293.167,310.5 292.5,310.5C 292.5,309.167 292.5,307.833 292.5,306.5C 291.838,302.534 291.505,298.534 291.5,294.5C 300.961,291.324 310.628,290.658 320.5,292.5C 320.461,294.359 321.294,295.692 323,296.5C 323.167,299 323.333,301.5 323.5,304C 323.528,307.939 322.528,311.439 320.5,314.5 Z"/></g>
<g><path style="opacity:1" fill="#cf872c" d="M 134.5,299.5 C 136.474,301.428 137.974,303.761 139,306.5C 140.154,307.743 141.488,308.743 143,309.5C 143.333,312.833 143.667,316.167 144,319.5C 146.243,325.871 149.076,331.871 152.5,337.5C 150.204,335.599 148.371,333.266 147,330.5C 143.994,324.808 141.66,318.808 140,312.5C 136.541,308.868 134.708,304.535 134.5,299.5 Z"/></g>
<g><path style="opacity:1" fill="#db6e71" d="M 320.5,314.5 C 317.834,322.837 312.167,326.003 303.5,324C 299.328,320.119 296.328,315.619 294.5,310.5C 294.238,309.022 294.571,307.689 295.5,306.5C 297.401,308.877 299.401,311.043 301.5,313C 306.167,313.667 310.833,313.667 315.5,313C 319.342,308.213 321.008,308.713 320.5,314.5 Z"/></g>
<g><path style="opacity:1" fill="#b17831" d="M 163.5,309.5 C 166.147,314.795 168.814,320.128 171.5,325.5C 169.867,324.055 168.034,322.721 166,321.5C 164.846,317.553 164.013,313.553 163.5,309.5 Z"/></g>
<g><path style="opacity:0.004" fill="#fe0000" d="M 124.5,325.5 C 123.833,326.167 123.833,326.167 124.5,325.5 Z"/></g>
<g><path style="opacity:1" fill="#462613" d="M 342.5,333.5 C 337.737,333.774 333.07,333.441 328.5,332.5C 330.278,328.673 331.778,324.673 333,320.5C 335.711,317.958 338.211,315.291 340.5,312.5C 341.498,319.472 342.165,326.472 342.5,333.5 Z"/></g>
<g><path style="opacity:0.945" fill="#46291e" d="M 289.5,334.5 C 286.099,332.616 282.433,332.116 278.5,333C 277.872,335.939 277.205,338.772 276.5,341.5C 275.857,333.17 275.69,324.836 276,316.5C 278.703,319.538 281.703,322.205 285,324.5C 286.604,327.821 288.104,331.154 289.5,334.5 Z"/></g>
<g><path style="opacity:1" fill="#b3782f" d="M 408.5,326.5 C 407.216,333.743 403.883,339.743 398.5,344.5C 401.837,338.492 405.17,332.492 408.5,326.5 Z"/></g>
<g><path style="opacity:0.996" fill="#b08048" d="M 123.5,301.5 C 126.818,310.447 130.151,319.447 133.5,328.5C 138.95,339.391 144.95,350.058 151.5,360.5C 151.591,362.698 150.925,363.031 149.5,361.5C 139.002,351.018 130.669,339.018 124.5,325.5C 122.919,323.858 122.253,321.858 122.5,319.5C 123.496,319.414 124.329,319.748 125,320.5C 125.583,322.002 126.416,323.335 127.5,324.5C 127.833,323.5 128.167,322.5 128.5,321.5C 125.919,315.179 124.252,308.512 123.5,301.5 Z"/></g>
<g><path style="opacity:0.996" fill="#eda34b" d="M 133.5,328.5 C 133.799,330.604 133.466,332.604 132.5,334.5C 130.709,332.336 129.376,329.836 128.5,327C 128.833,326.5 129.167,326 129.5,325.5C 130.283,327.288 131.616,328.288 133.5,328.5 Z"/></g>
<g><path style="opacity:0.997" fill="#3f4550" d="M 328.5,332.5 C 333.07,333.441 337.737,333.774 342.5,333.5C 343.345,334.671 344.011,336.005 344.5,337.5C 343.209,337.263 342.209,337.596 341.5,338.5C 340.717,337.54 339.55,336.873 338,336.5C 337.167,336.667 336.333,336.833 335.5,337C 336.696,337.654 336.696,338.154 335.5,338.5C 334.817,338.137 334.15,337.804 333.5,337.5C 330.713,336.523 327.713,336.19 324.5,336.5C 325.5,334.833 326.833,333.5 328.5,332.5 Z"/></g>
<g><path style="opacity:0.459" fill="#e4e6e9" d="M 324.5,336.5 C 327.713,336.19 330.713,336.523 333.5,337.5C 332.198,339.028 330.531,340.028 328.5,340.5C 325.868,342.063 323.535,341.73 321.5,339.5C 321.81,337.856 322.81,336.856 324.5,336.5 Z"/></g>
<g><path style="opacity:0.506" fill="#d3d3d1" d="M 344.5,337.5 C 344.712,339.384 345.712,340.717 347.5,341.5C 348.452,343.045 348.785,344.712 348.5,346.5C 346.5,346.5 344.5,346.5 342.5,346.5C 342.5,346.167 342.5,345.833 342.5,345.5C 343.833,345.167 343.833,344.833 342.5,344.5C 342.286,342.856 342.62,341.356 343.5,340C 342.584,339.722 341.918,339.222 341.5,338.5C 342.209,337.596 343.209,337.263 344.5,337.5 Z"/></g>
<g><path style="opacity:1" fill="#d8d8d8" d="M 365.5,338.5 C 366.675,338.281 367.675,338.614 368.5,339.5C 371.73,343.043 374.064,347.043 375.5,351.5C 374.178,351.67 373.011,351.337 372,350.5C 370.487,347.476 368.487,344.809 366,342.5C 365.51,341.207 365.343,339.873 365.5,338.5 Z"/></g>
<g><path style="opacity:0.651" fill="#d2d2d3" d="M 244.5,345.5 C 245.461,347.265 245.795,349.265 245.5,351.5C 243.901,351.232 242.568,351.566 241.5,352.5C 241.167,352.5 240.833,352.5 240.5,352.5C 240.579,351.07 240.246,349.736 239.5,348.5C 237.164,347.406 237.164,346.073 239.5,344.5C 241.156,346.022 242.323,345.689 243,343.5C 243.278,344.416 243.778,345.082 244.5,345.5 Z"/></g>
<g><path style="opacity:1" fill="#8a5f2c" d="M 186.5,347.5 C 190.566,350.563 193.899,354.229 196.5,358.5C 192.434,355.437 189.101,351.771 186.5,347.5 Z"/></g>
<g><path style="opacity:0.371" fill="#1c2127" d="M 274.5,346.5 C 274.489,348.017 273.823,349.184 272.5,350C 272.833,350.333 273.167,350.667 273.5,351C 276.714,350.083 280.047,349.75 283.5,350C 284.833,351.333 286.167,352.667 287.5,354C 293.541,354.162 299.541,353.662 305.5,352.5C 305.5,353.833 305.5,355.167 305.5,356.5C 303.076,356.192 300.743,356.526 298.5,357.5C 299.689,358.429 301.022,358.762 302.5,358.5C 301.081,359.451 299.415,359.784 297.5,359.5C 297.5,358.167 297.5,356.833 297.5,355.5C 295.192,355.914 292.858,356.247 290.5,356.5C 288.026,356.387 286.026,355.387 284.5,353.5C 280.541,352.673 276.541,352.173 272.5,352C 271.091,349.391 271.758,347.558 274.5,346.5 Z"/></g>
<g><path style="opacity:0.297" fill="#e9e9e9" d="M 334.5,353.5 C 331.15,353.335 327.817,353.502 324.5,354C 322.981,355.351 321.648,356.851 320.5,358.5C 316.571,357.567 312.571,357.234 308.5,357.5C 308.5,356.167 308.5,354.833 308.5,353.5C 313.106,353.924 317.606,353.924 322,353.5C 324.295,352.525 326.295,351.192 328,349.5C 330.594,350.285 332.761,351.618 334.5,353.5 Z"/></g>
<g><path style="opacity:1" fill="#ee9322" d="M 171.5,325.5 C 176.497,332.825 181.497,340.158 186.5,347.5C 189.101,351.771 192.434,355.437 196.5,358.5C 209.511,370.871 223.844,381.204 239.5,389.5C 237.409,389.682 235.409,389.348 233.5,388.5C 232.476,389.853 231.143,390.52 229.5,390.5C 230.27,394.751 228.603,397.251 224.5,398C 224.957,398.414 225.291,398.914 225.5,399.5C 224.147,400.524 223.48,401.857 223.5,403.5C 226.265,403.71 228.265,405.043 229.5,407.5C 228.167,407.5 226.833,407.5 225.5,407.5C 225.5,406.5 225.5,405.5 225.5,404.5C 219.604,402.782 214.271,399.948 209.5,396C 208.207,395.51 206.873,395.343 205.5,395.5C 187.896,383.564 172.896,368.897 160.5,351.5C 162.645,351.738 164.312,352.738 165.5,354.5C 169.5,355.167 173.5,355.833 177.5,356.5C 176.16,357.688 175.493,359.188 175.5,361C 176.662,364.487 177.829,367.987 179,371.5C 180.53,370.08 182.363,369.08 184.5,368.5C 183.833,367.167 182.833,366.167 181.5,365.5C 180.669,358.189 180.169,350.856 180,343.5C 179.667,343.833 179.333,344.167 179,344.5C 178.5,343.333 177.667,342.5 176.5,342C 177.428,341.612 178.095,340.945 178.5,340C 177.278,337.035 175.778,336.868 174,339.5C 173.415,337.871 172.581,336.371 171.5,335C 171.95,333.715 172.617,332.548 173.5,331.5C 171.914,329.827 171.247,327.827 171.5,325.5 Z"/></g>
<g><path style="opacity:0.004" fill="#000000" d="M 422.5,353.5 C 423.833,354.167 423.833,354.167 422.5,353.5 Z"/></g>
<g><path style="opacity:0.996" fill="#6d747c" d="M 308.5,353.5 C 308.5,354.833 308.5,356.167 308.5,357.5C 306.621,358.341 304.621,358.675 302.5,358.5C 301.022,358.762 299.689,358.429 298.5,357.5C 300.743,356.526 303.076,356.192 305.5,356.5C 305.5,355.167 305.5,353.833 305.5,352.5C 305.435,352.062 305.601,351.728 306,351.5C 306.995,352.066 307.828,352.733 308.5,353.5 Z"/></g>
<g><path style="opacity:0.691" fill="#f1f2f3" d="M 241.5,355.5 C 241.5,355.833 241.5,356.167 241.5,356.5C 242.103,361.619 241.436,366.285 239.5,370.5C 238.5,370.5 237.5,370.5 236.5,370.5C 236.254,367.53 234.588,366.197 231.5,366.5C 233.629,364.113 235.962,362.613 238.5,362C 238.167,361.667 237.833,361.333 237.5,361C 239.469,359.5 240.802,357.667 241.5,355.5 Z"/></g>
<g><path style="opacity:1" fill="#d7d7d7" d="M 260.5,348.5 C 261.5,348.5 262.5,348.5 263.5,348.5C 264.167,351.833 264.833,355.167 265.5,358.5C 264.167,358.5 262.833,358.5 261.5,358.5C 262.244,355.05 260.91,353.384 257.5,353.5C 257.092,356.599 258.259,358.933 261,360.5C 261.839,363.14 261.339,365.473 259.5,367.5C 256.562,368.489 253.562,369.156 250.5,369.5C 250.058,365.846 249.724,362.179 249.5,358.5C 252.766,358.433 254.266,360.099 254,363.5C 255.011,364.337 256.178,364.67 257.5,364.5C 257.046,361.86 255.879,359.527 254,357.5C 252.57,351.776 254.737,348.776 260.5,348.5 Z"/></g>
<g><path style="opacity:1" fill="#dbdbdb" d="M 355.5,348.5 C 356.822,348.33 357.989,348.663 359,349.5C 360.503,353.172 362.003,356.838 363.5,360.5C 363.444,361.737 362.944,362.737 362,363.5C 360.98,362.109 360.147,360.609 359.5,359C 358.004,358.493 356.837,358.993 356,360.5C 355.825,363.157 355.992,365.824 356.5,368.5C 355.5,368.5 354.5,368.5 353.5,368.5C 352.322,363.809 350.322,359.476 347.5,355.5C 347.833,354.5 348.5,353.833 349.5,353.5C 351.167,354.5 352.5,355.833 353.5,357.5C 355.23,356.974 356.564,355.974 357.5,354.5C 356.253,352.677 355.586,350.677 355.5,348.5 Z"/></g>
<g><path style="opacity:0.745" fill="#584b3a" d="M 151.5,360.5 C 153.969,363.144 156.302,365.977 158.5,369C 157.906,369.464 157.239,369.631 156.5,369.5C 153.427,367.431 151.094,364.764 149.5,361.5C 150.925,363.031 151.591,362.698 151.5,360.5 Z"/></g>
<g><path style="opacity:1" fill="#d8d8d8" d="M 332.5,360.5 C 335.226,360.264 337.559,361.097 339.5,363C 340.337,364.011 340.67,365.178 340.5,366.5C 337.507,365.865 334.507,365.699 331.5,366C 329.046,371.546 330.712,374.213 336.5,374C 337.224,371.33 338.891,369.83 341.5,369.5C 341.198,376.632 337.531,379.465 330.5,378C 324.701,371.312 325.368,365.479 332.5,360.5 Z"/></g>
<g><path style="opacity:1" fill="#7e7f80" d="M 241.5,356.5 C 242.487,361.305 242.821,366.305 242.5,371.5C 241.209,371.737 240.209,371.404 239.5,370.5C 241.436,366.285 242.103,361.619 241.5,356.5 Z"/></g>
<g><path style="opacity:1" fill="#262c38" d="M 227.5,366.5 C 228.833,366.5 230.167,366.5 231.5,366.5C 234.588,366.197 236.254,367.53 236.5,370.5C 237.5,370.5 238.5,370.5 239.5,370.5C 240.209,371.404 241.209,371.737 242.5,371.5C 242.785,373.288 242.452,374.955 241.5,376.5C 235.631,374.591 230.965,371.258 227.5,366.5 Z"/></g>
<g><path style="opacity:1" fill="#a5722e" d="M 385.5,361.5 C 381.719,366.735 377.053,371.068 371.5,374.5C 375.786,369.702 380.453,365.369 385.5,361.5 Z"/></g>
<g><path style="opacity:1" fill="#d5d5d5" d="M 275.5,360.5 C 276.833,360.5 278.167,360.5 279.5,360.5C 280.224,363.843 281.057,367.176 282,370.5C 284.531,367.112 287.698,364.779 291.5,363.5C 290.495,369.51 289.495,375.51 288.5,381.5C 287.167,381.5 285.833,381.5 284.5,381.5C 284.278,378.61 284.945,375.943 286.5,373.5C 286.167,373.167 285.833,372.833 285.5,372.5C 281.137,376.842 278.47,375.842 277.5,369.5C 276.21,371.657 275.376,373.99 275,376.5C 273.989,377.337 272.822,377.67 271.5,377.5C 271.873,371.584 273.207,365.917 275.5,360.5 Z"/></g>
<g><path style="opacity:1" fill="#dadada" d="M 305.5,365.5 C 314.658,364.491 318.492,368.491 317,377.5C 314.647,382.426 310.814,384.26 305.5,383C 300.19,377.096 300.19,371.263 305.5,365.5 Z"/></g>
<g><path style="opacity:1" fill="#151515" d="M 306.5,369.5 C 313.628,369.706 315.294,372.873 311.5,379C 309.559,379.743 307.726,379.576 306,378.5C 305.264,375.408 305.431,372.408 306.5,369.5 Z"/></g>
<g><path style="opacity:1" fill="#b2782f" d="M 364.5,379.5 C 363.972,380.721 363.305,381.887 362.5,383C 356.178,385.826 350.178,389.159 344.5,393C 342.527,393.495 340.527,393.662 338.5,393.5C 347.127,388.852 355.794,384.185 364.5,379.5 Z"/></g>
<g><path style="opacity:1" fill="#966934" d="M 298.5,391.5 C 298.5,391.833 298.5,392.167 298.5,392.5C 293.752,392.725 289.085,392.225 284.5,391C 288.262,388.844 292.262,388.177 296.5,389C 297.381,389.708 298.047,390.542 298.5,391.5 Z"/></g>
<g><path style="opacity:1" fill="#f5961f" d="M 239.5,389.5 C 241.921,389.878 244.254,390.545 246.5,391.5C 249.404,393.295 252.404,395.128 255.5,397C 263.541,399.059 271.541,400.559 279.5,401.5C 292.569,402.175 305.735,402.842 319,403.5C 320.167,402.333 321.333,401.167 322.5,400C 326.314,399.766 329.981,398.932 333.5,397.5C 333.94,398.698 334.273,399.865 334.5,401C 335.938,401.219 337.271,401.719 338.5,402.5C 334.411,403.378 330.411,404.545 326.5,406C 327.325,407.688 328.325,407.855 329.5,406.5C 331.973,408.098 331.973,409.598 329.5,411C 331.623,412.194 333.957,412.86 336.5,413C 330.485,415.281 324.485,417.448 318.5,419.5C 302.888,421.186 287.221,421.853 271.5,421.5C 271.167,421.5 270.833,421.5 270.5,421.5C 263.942,418.435 256.942,416.768 249.5,416.5C 247.664,414.991 245.664,413.491 243.5,412C 238.53,411.053 233.863,409.553 229.5,407.5C 228.265,405.043 226.265,403.71 223.5,403.5C 223.48,401.857 224.147,400.524 225.5,399.5C 225.291,398.914 224.957,398.414 224.5,398C 228.603,397.251 230.27,394.751 229.5,390.5C 231.143,390.52 232.476,389.853 233.5,388.5C 235.409,389.348 237.409,389.682 239.5,389.5 Z"/></g>
<g><path style="opacity:1" fill="#584129" d="M 298.5,392.5 C 298.5,392.167 298.5,391.833 298.5,391.5C 307.788,391.819 316.621,390.153 325,386.5C 325.833,386.833 326.667,387.167 327.5,387.5C 318.367,391.849 308.7,393.516 298.5,392.5 Z"/></g>
<g><path style="opacity:1" fill="#b97e33" d="M 205.5,395.5 C 206.873,395.343 208.207,395.51 209.5,396C 214.271,399.948 219.604,402.782 225.5,404.5C 225.5,405.5 225.5,406.5 225.5,407.5C 218.494,404 211.827,400 205.5,395.5 Z"/></g>
<g><path style="opacity:1" fill="#b2772f" d="M 336.5,393.5 C 332.028,397.544 326.695,399.211 320.5,398.5C 325.796,397.048 331.129,395.381 336.5,393.5 Z"/></g>
<g><path style="opacity:1" fill="#92632a" d="M 246.5,391.5 C 270.455,400.576 295.122,402.91 320.5,398.5C 317.851,400.109 314.851,400.943 311.5,401C 300.839,401.5 290.172,401.667 279.5,401.5C 271.541,400.559 263.541,399.059 255.5,397C 252.404,395.128 249.404,393.295 246.5,391.5 Z"/></g>
<g><path style="opacity:1" fill="#b87c2e" d="M 225.5,407.5 C 226.833,407.5 228.167,407.5 229.5,407.5C 233.863,409.553 238.53,411.053 243.5,412C 245.664,413.491 247.664,414.991 249.5,416.5C 240.827,415.057 232.827,412.057 225.5,407.5 Z"/></g>
<g><path style="opacity:0.004" fill="#000000" d="M 217.5,418.5 C 216.833,419.167 216.833,419.167 217.5,418.5 Z"/></g>
<g><path style="opacity:1" fill="#a67230" d="M 249.5,416.5 C 256.942,416.768 263.942,418.435 270.5,421.5C 263.059,421.212 256.059,419.545 249.5,416.5 Z"/></g>
<g><path style="opacity:1" fill="#b07d37" d="M 318.5,419.5 C 314.079,420.945 309.412,421.778 304.5,422C 293.326,422.826 282.326,422.659 271.5,421.5C 287.221,421.853 302.888,421.186 318.5,419.5 Z"/></g>
</svg>
